<?xml version="1.0" standalone="no"?>
<!DOCTYPE svg PUBLIC "-//W3C//DTD SVG 20010904//EN"
 "http://www.w3.org/TR/2001/REC-SVG-20010904/DTD/svg10.dtd">
<svg version="1.0" xmlns="http://www.w3.org/2000/svg"
 width="796.000000pt" height="796.000000pt" viewBox="0 0 796.000000 796.000000"
 preserveAspectRatio="xMidYMid meet">
<metadata>
Created by potrace 1.14, written by Peter Selinger 2001-2017
</metadata>
<g transform="translate(0.000000,796.000000) scale(0.100000,-0.100000)"
fill="#000000" stroke="none">
<path d="M3121 7095 c0 -22 0 -44 -1 -50 -1 -5 -1 -28 -1 -50 1 -22 2 -46 1
-52 -1 -27 -1 -40 0 -88 0 -27 -1 -71 -1 -96 -1 -26 1 -51 5 -57 3 -6 2 -13
-4 -17 -6 -4 -8 -11 -4 -16 3 -6 6 -34 5 -62 -1 -29 -1 -70 -1 -92 0 -22 0
-46 0 -52 0 -7 0 -19 0 -25 0 -7 0 -35 0 -63 0 -27 -1 -71 -1 -96 -1 -26 1
-51 5 -57 3 -6 2 -13 -4 -17 -6 -4 -8 -11 -4 -16 6 -10 7 -69 1 -139 -1 -19 1
-45 5 -57 4 -12 3 -25 -2 -28 -5 -3 -5 -18 -1 -33 4 -15 5 -38 1 -52 -4 -14
-3 -35 1 -47 5 -12 4 -25 -1 -28 -5 -3 -5 -18 -1 -33 4 -15 5 -38 1 -52 -4
-14 -3 -35 1 -47 5 -12 4 -25 -1 -28 -5 -3 -5 -18 -1 -33 4 -15 5 -38 1 -52
-4 -14 -3 -35 1 -47 5 -12 4 -25 -1 -28 -5 -3 -5 -18 -1 -33 4 -15 5 -38 1
-52 -4 -14 -3 -35 1 -47 5 -12 4 -25 -1 -28 -5 -3 -5 -18 -1 -33 4 -15 5 -38
1 -52 -4 -14 -3 -35 1 -47 5 -12 4 -25 -1 -28 -5 -3 -5 -18 -1 -33 4 -15 5
-38 1 -52 -4 -14 -3 -35 1 -47 5 -12 4 -25 -1 -28 -5 -3 -5 -18 -1 -33 5 -15
5 -36 1 -47 -4 -11 -4 -31 -1 -45 8 -33 6 -2237 -3 -2316 -3 -33 -13 -85 -22
-115 -18 -63 -74 -179 -86 -179 -4 0 -8 -6 -8 -14 0 -24 -124 -142 -198 -190
-92 -60 -235 -120 -337 -142 -12 -2 -71 -13 -105 -19 -109 -19 -358 -25 -490
-11 -41 4 -83 8 -92 9 -10 1 -18 4 -18 7 0 3 -16 6 -36 8 -36 2 -193 47 -224
63 -8 4 -41 19 -73 34 -77 35 -212 127 -262 180 -66 71 -95 104 -95 112 0 4
-9 16 -19 27 -38 42 -103 181 -117 251 -2 11 -8 40 -13 65 -10 44 -13 61 -27
168 -6 45 -9 50 -21 40 -9 -7 -18 -19 -22 -28 -5 -14 -315 -481 -334 -505 -4
-5 -116 -173 -249 -372 l-240 -362 38 -43 c69 -77 177 -178 257 -238 42 -33
79 -60 82 -60 2 0 23 -13 47 -29 63 -42 183 -104 268 -140 41 -18 83 -36 92
-41 10 -6 22 -10 27 -10 5 0 22 -5 38 -12 32 -13 25 -10 118 -39 157 -47 207
-59 350 -84 17 -2 41 -7 55 -10 29 -6 111 -17 220 -30 106 -13 220 -18 465
-18 259 -1 360 5 545 29 30 3 64 8 75 9 11 1 31 5 45 8 14 4 41 9 60 11 19 3
67 12 105 21 39 9 79 19 90 22 124 28 335 107 465 172 126 63 241 134 248 153
2 4 9 8 15 8 7 1 27 14 46 30 l34 29 45 -32 c24 -18 59 -40 76 -51 17 -10 33
-21 36 -25 6 -7 20 -15 122 -69 40 -22 107 -54 148 -71 41 -18 84 -36 95 -41
21 -10 130 -48 155 -55 8 -3 31 -9 50 -14 43 -12 198 -51 225 -57 11 -2 31 -6
45 -9 47 -10 75 -15 110 -20 19 -3 46 -7 60 -9 14 -3 48 -8 75 -11 28 -3 68
-8 90 -11 98 -12 188 -16 450 -16 330 -1 412 4 650 43 157 25 163 26 275 55
52 14 102 27 110 29 23 5 199 70 255 94 347 150 632 392 807 686 55 92 131
258 143 310 1 5 4 17 7 25 22 59 45 149 53 210 2 14 4 25 5 25 1 0 5 18 15 80
24 146 26 470 4 615 -14 95 -17 114 -28 165 -23 117 -128 392 -153 403 -5 2
-8 8 -8 14 0 13 -112 174 -153 220 -101 113 -162 171 -247 236 -30 23 -60 46
-66 51 -15 12 -212 131 -218 131 -2 0 -42 17 -88 39 -45 21 -94 42 -108 46
-14 4 -38 13 -55 20 -34 15 -145 54 -172 60 -10 3 -49 14 -88 26 -66 19 -121
35 -155 43 -8 2 -35 9 -60 16 -25 7 -52 14 -60 16 -8 2 -44 11 -80 19 -36 9
-76 19 -90 21 -14 3 -31 7 -39 10 -12 4 -180 42 -266 60 -11 2 -29 6 -40 8
-11 3 -65 14 -120 26 -181 38 -448 108 -535 140 -47 17 -89 32 -95 34 -5 1
-39 18 -75 37 -36 18 -69 36 -75 38 -13 5 -92 69 -119 96 -108 112 -164 255
-160 415 4 202 91 367 262 498 95 73 281 150 402 167 14 1 41 6 60 10 66 12
105 15 235 14 143 0 186 -3 290 -24 54 -11 150 -35 170 -44 86 -36 130 -57
133 -63 2 -5 8 -8 14 -8 31 0 178 -121 233 -191 77 -99 133 -238 171 -427 4
-20 73 46 491 462 l487 485 -40 58 c-33 50 -211 236 -285 298 -58 50 -315 215
-334 215 -2 0 -32 13 -67 30 -125 58 -334 130 -453 156 -54 11 -174 34 -202
39 -18 3 -48 8 -65 11 -18 3 -55 7 -83 9 -27 2 -66 6 -85 9 -38 7 -213 18
-245 16 -11 -1 -27 -1 -35 0 -8 0 -24 0 -35 0 -11 -1 -27 -1 -35 -1 -39 2
-199 -1 -216 -3 -10 -2 -27 1 -36 5 -10 5 -19 5 -22 0 -3 -4 -23 -5 -43 -2
-21 4 -54 4 -73 1 -19 -3 -47 -3 -62 1 -16 4 -28 5 -28 1 0 -8 -232 -7 -253 1
-7 3 -32 2 -54 -2 -23 -5 -48 -4 -56 1 -9 5 -18 4 -22 -1 -3 -6 -15 -7 -27 -2
-12 4 -38 5 -59 1 -21 -4 -43 -4 -50 1 -7 4 -18 5 -23 1 -6 -3 -26 -5 -46 -4
-80 4 -142 3 -147 -1 -2 -3 -18 -1 -34 3 -16 5 -29 6 -29 2 0 -4 -33 -6 -72
-5 -129 5 -180 5 -185 0 -2 -3 -18 -1 -34 3 -16 5 -29 6 -29 2 0 -8 -233 -7
-254 1 -9 4 -18 2 -20 -2 -3 -5 -23 -5 -43 -2 -21 4 -54 4 -73 1 -19 -3 -47
-3 -62 1 -16 4 -28 5 -28 1 0 -6 -228 -8 -255 -2 -5 1 -14 1 -20 0 -29 -6 -61
-4 -68 5 -4 6 -7 -8 -6 -30z m1459 -3370 c8 -3 49 -14 90 -26 136 -38 410
-107 410 -102 0 2 6 1 13 -4 6 -4 17 -8 22 -9 6 -1 24 -5 40 -9 17 -3 40 -8
53 -11 13 -2 60 -14 105 -25 45 -11 91 -22 102 -24 25 -6 269 -68 350 -90 316
-84 583 -210 705 -334 63 -64 69 -74 110 -156 69 -142 82 -323 34 -484 -71
-241 -261 -415 -547 -503 -78 -23 -76 -23 -127 -32 -70 -13 -86 -16 -150 -22
-81 -9 -338 -9 -405 0 -27 4 -64 8 -82 11 -17 2 -49 8 -70 14 -21 6 -49 12
-63 15 -83 14 -329 122 -338 147 -2 5 -8 9 -14 9 -20 0 -152 119 -208 187 -8
10 -28 39 -44 63 -16 25 -37 56 -46 70 -16 24 -61 152 -75 215 -4 17 -9 39
-12 50 -4 11 -7 264 -9 562 l-2 541 71 -25 c40 -13 79 -26 87 -28z"/>
</g>
</svg>
