<?xml version="1.0" standalone="no"?>
<!DOCTYPE svg PUBLIC "-//W3C//DTD SVG 20010904//EN"
 "http://www.w3.org/TR/2001/REC-SVG-20010904/DTD/svg10.dtd">
<svg version="1.0" xmlns="http://www.w3.org/2000/svg"
 width="1100.000000pt" height="1100.000000pt" viewBox="0 0 1100.000000 1100.000000"
 preserveAspectRatio="xMidYMid meet">
<metadata>
Created by potrace 1.14, written by Peter Selinger 2001-2017
</metadata>
<g transform="translate(0.000000,1100.000000) scale(0.100000,-0.100000)"
fill="#000000" stroke="none">
<path d="M7469 10986 c-1 -1 -3 -1920 -4 -4266 -1 -2346 -3 -4266 -4 -4268 0
-1 -124 96 -273 215 -150 120 -281 225 -292 233 -10 8 -27 23 -38 32 -10 10
-22 18 -28 18 -5 0 -10 3 -10 8 0 4 -27 27 -60 52 -33 24 -60 48 -60 52 0 5
-6 8 -14 8 -8 0 -16 4 -18 8 -1 4 -23 23 -48 42 -44 35 -194 155 -217 175 -36
30 -43 35 -43 31 0 -2 -15 10 -32 26 -18 17 -55 48 -83 68 -27 21 -61 47 -75
59 -14 11 -29 24 -35 28 -56 44 -201 159 -205 163 -3 3 -39 32 -80 65 -41 32
-78 64 -82 69 -4 6 -8 8 -8 4 0 -4 -12 4 -27 18 -14 13 -40 35 -56 47 -16 12
-34 27 -40 32 -7 6 -36 28 -64 50 -29 21 -53 43 -53 47 0 4 -5 8 -12 8 -7 0
-21 9 -33 20 -43 41 -65 60 -71 60 -3 0 -11 6 -18 12 -7 7 -27 24 -45 38 -18
14 -38 30 -44 35 -24 21 -74 61 -107 85 -18 14 -38 30 -44 35 -6 6 -65 53
-131 105 -66 52 -129 102 -140 112 -11 9 -91 73 -178 142 -86 69 -163 130
-170 136 -6 6 -45 36 -84 67 -40 31 -73 61 -73 67 1 6 27 30 58 54 32 23 71
54 87 67 38 31 24 21 205 160 85 66 162 125 170 132 8 7 44 35 80 63 36 28 72
56 80 63 8 8 31 25 50 38 19 13 39 29 45 35 5 6 82 67 170 135 88 68 165 128
171 134 7 5 24 19 40 30 15 11 44 34 64 50 73 60 113 90 122 94 5 2 21 14 36
28 15 13 95 77 177 140 83 64 152 120 153 125 2 4 10 8 17 8 7 0 15 3 17 8 2
4 55 48 118 97 63 49 120 94 127 100 16 13 14 12 173 135 74 58 142 112 150
120 13 13 15 107 14 765 -1 413 -2 753 -3 758 -1 7 -68 -44 -146 -110 -16 -14
-41 -33 -55 -42 -14 -8 -27 -18 -30 -21 -3 -3 -70 -57 -150 -119 -80 -62 -158
-123 -175 -136 -16 -13 -79 -62 -140 -109 -126 -98 -109 -85 -200 -156 -38
-30 -75 -59 -82 -65 -17 -14 -33 -26 -78 -60 -22 -16 -47 -35 -55 -42 -8 -7
-53 -42 -100 -78 -109 -85 -138 -108 -153 -120 -7 -6 -37 -29 -67 -52 -30 -23
-64 -50 -75 -60 -11 -10 -33 -26 -48 -36 -16 -10 -37 -26 -47 -35 -24 -22 -32
-28 -110 -88 -36 -27 -67 -51 -70 -54 -3 -3 -34 -28 -70 -55 -36 -27 -70 -54
-77 -60 -6 -5 -22 -18 -35 -28 -23 -18 -190 -147 -218 -170 -9 -7 -33 -25 -55
-41 -22 -17 -42 -33 -45 -36 -3 -4 -36 -30 -75 -59 -93 -71 -135 -104 -149
-116 -6 -6 -29 -24 -51 -40 -22 -17 -76 -58 -120 -93 -44 -34 -90 -70 -103
-80 -12 -9 -28 -21 -35 -27 -39 -32 -113 -90 -192 -151 -49 -38 -97 -74 -105
-81 -8 -7 -43 -34 -76 -60 -34 -26 -77 -60 -95 -75 -71 -55 -108 -84 -135
-103 -15 -11 -32 -25 -38 -30 -6 -6 -29 -24 -51 -40 -22 -17 -42 -32 -45 -35
-3 -4 -23 -19 -45 -35 -22 -17 -42 -32 -45 -35 -5 -6 -375 -294 -525 -410 -38
-29 -89 -69 -113 -88 -47 -39 -49 -34 28 -92 18 -14 59 -45 90 -70 95 -76 209
-165 355 -277 33 -26 78 -60 100 -77 22 -17 42 -33 45 -36 3 -3 34 -28 70 -55
36 -28 67 -52 70 -55 3 -3 23 -18 45 -35 22 -16 42 -32 45 -35 3 -3 46 -37 95
-75 50 -38 95 -74 101 -80 7 -5 23 -18 38 -29 14 -10 130 -100 258 -200 128
-100 265 -206 303 -236 39 -29 93 -72 122 -94 28 -23 66 -52 84 -66 18 -14 37
-29 43 -35 6 -5 49 -39 96 -75 47 -35 90 -69 97 -75 15 -12 25 -20 83 -65 25
-19 50 -39 56 -45 7 -5 24 -19 40 -30 15 -11 53 -40 84 -65 31 -25 72 -56 90
-70 18 -14 38 -29 44 -35 6 -5 38 -30 71 -55 33 -25 62 -47 65 -50 4 -5 67
-54 105 -82 20 -15 100 -79 121 -96 11 -9 36 -28 54 -42 31 -23 232 -179 255
-198 6 -4 53 -41 105 -82 52 -41 100 -78 105 -82 10 -8 179 -140 200 -156 6
-4 42 -32 80 -62 39 -30 76 -59 83 -65 7 -5 22 -18 33 -28 10 -9 21 -17 24
-17 3 0 15 -9 27 -19 22 -19 202 -161 268 -211 55 -42 373 -290 402 -313 14
-12 36 -29 48 -37 12 -8 32 -23 43 -34 12 -10 49 -39 82 -64 33 -26 85 -66
115 -90 30 -24 66 -52 80 -63 14 -10 63 -48 110 -85 47 -36 98 -76 113 -88 16
-11 34 -26 40 -31 23 -20 369 -290 385 -300 9 -5 22 -16 30 -23 8 -7 30 -25
50 -40 21 -15 39 -29 42 -32 3 -3 25 -21 50 -40 25 -19 47 -38 48 -42 2 -5 8
-8 13 -8 9 0 44 -27 81 -62 10 -10 20 -18 23 -18 2 0 40 -28 83 -63 43 -34 93
-73 111 -87 18 -14 38 -29 44 -35 7 -5 39 -30 72 -55 33 -25 62 -48 63 -52 2
-5 8 -8 13 -8 5 0 9 2169 9 5488 l0 5488 -585 1 c-322 0 -586 0 -586 -1z"/>
</g>
</svg>
