<?xml version="1.0" standalone="no"?>
<!DOCTYPE svg PUBLIC "-//W3C//DTD SVG 1.1//EN" "http://www.w3.org/Graphics/SVG/1.1/DTD/svg11.dtd" >
<svg xmlns="http://www.w3.org/2000/svg" xmlns:xlink="http://www.w3.org/1999/xlink" version="1.1">
<metadata></metadata>
<defs>
<font id="mercury_text_g1italic" horiz-adv-x="1064" >
<font-face units-per-em="2048" ascent="1638" descent="-410" />
<missing-glyph horiz-adv-x="450" />
<glyph horiz-adv-x="0" />
<glyph horiz-adv-x="682" />
<glyph unicode=" "  horiz-adv-x="450" />
<glyph unicode="&#x09;" horiz-adv-x="450" />
<glyph unicode="&#xa0;" horiz-adv-x="450" />
<glyph unicode="!" horiz-adv-x="569" d="M63 92q0 51 36 87t87 36t87 -36t36 -87t-36 -87t-87 -36t-87 36t-36 87zM225 401q7 80 17.5 206.5t17.5 206.5t15.5 169.5t15.5 148t14 89.5q11 57 41.5 85.5t71.5 28.5q110 0 104 -129q-1 -31 -21.5 -107.5t-66 -214.5t-74.5 -224t-90 -265z" />
<glyph unicode="&#x22;" horiz-adv-x="817" d="M158 879l57 157q73 204 92 238q34 61 90 61q31 0 54.5 -20.5t23.5 -46.5q0 -19 -16 -56q-22 -45 -156 -213l-108 -139zM481 879l60 157q70 201 90 238q34 61 90 61q31 0 54.5 -20.5t23.5 -46.5q0 -28 -17 -56q-26 -54 -151 -213l-113 -139z" />
<glyph unicode="#" horiz-adv-x="1288" d="M111 360v80h241l58 193l41 164h-256v80h278l90 323l94 -20l-90 -303h297l90 323l95 -20l-91 -303h220v-80h-244l-53 -181l-45 -176h258v-80h-277l-86 -307l-96 21l88 286h-297l-86 -307l-96 21l88 286h-221zM444 440h299l58 193l41 164h-299l-54 -181z" />
<glyph unicode="$" d="M20 66l70 333l31 2q15 -172 83.5 -261.5t190.5 -108.5l113 542q-159 89 -224 166t-65 189q0 109 61.5 193.5t159.5 126.5t211 38l37 187l76 -11l-37 -182q151 -18 281 -80l-54 -282l-34 -7q-24 117 -81 193.5t-132 105.5l-105 -508q164 -93 229.5 -173t65.5 -197 q0 -157 -126.5 -259t-315.5 -104l-45 -213l-74 8l43 209q-173 14 -359 93zM358 975q0 -70 43 -125t140 -115l102 490q-127 10 -206 -59.5t-79 -190.5zM463 27q128 0 209.5 71.5t81.5 192.5q0 74 -45 131.5t-142 116.5z" />
<glyph unicode="%" horiz-adv-x="1572" d="M145 870q0 69 27.5 142t74 133.5t116.5 99.5t147 39q104 0 169.5 -67t65.5 -185q0 -55 -17 -113.5t-49.5 -112t-76 -95.5t-101.5 -67.5t-120 -25.5q-104 0 -170 67t-66 185zM221 -16l539 659l528 674l68 -47l-539 -662l-528 -674zM276 881q0 -97 34 -152t104 -55 q59 0 106 52.5t70.5 131t23.5 164.5q0 98 -33.5 152.5t-103.5 54.5q-59 0 -106 -52.5t-71 -131t-24 -164.5zM829 219q0 69 27.5 142t74 133.5t116.5 99.5t147 39q104 0 170 -67t66 -185q0 -69 -27.5 -142t-74 -133.5t-116.5 -99.5t-147 -39q-104 0 -170 67t-66 185zM961 229 q0 -206 137 -206q59 0 106 52.5t70.5 131t23.5 164.5q0 98 -33.5 152.5t-103.5 54.5q-59 0 -106 -52.5t-70.5 -131.5t-23.5 -165z" />
<glyph unicode="&#x26;" horiz-adv-x="1398" d="M66 268q0 140 94.5 240.5t283.5 153.5l2 18q-186 81 -186 246q0 74 43 143.5t109.5 118t147.5 77.5t155 29q84 0 128 -34.5t44 -83.5q0 -42 -33 -70t-84 -27t-92 37t-66 98q-75 -25 -130.5 -98t-55.5 -164q0 -88 71.5 -149.5t198.5 -81.5l262 90l121 188l56 -12l-60 -237 h250l-22 -93h-248l-101 -405q-23 -96 19 -127q40 -29 135 -29q56 0 121 6v-30q-65 -34 -99.5 -50.5t-83 -30.5t-92.5 -14q-93 0 -134.5 42.5t-33.5 119.5l-18 4q-105 -79 -196.5 -122.5t-192.5 -43.5q-135 0 -224 81.5t-89 209.5zM252 324q0 -105 62.5 -162.5t168.5 -57.5 q73 0 158.5 34.5t165.5 94.5l100 424h-245q-199 -29 -304.5 -117.5t-105.5 -215.5z" />
<glyph unicode="'" horiz-adv-x="493" d="M158 879l57 157q73 204 92 238q34 61 90 61q31 0 54.5 -20.5t23.5 -46.5q0 -19 -16 -56q-22 -45 -156 -213l-108 -139z" />
<glyph unicode="(" horiz-adv-x="739" d="M133 489q0 158 49.5 310t146 289t251.5 249.5t352 180.5l12 -48q-213 -93 -364 -252t-223 -351t-72 -404q0 -242 94 -440.5t280 -339.5l-26 -43q-249 144 -374.5 362t-125.5 487z" />
<glyph unicode=")" horiz-adv-x="739" d="M-231 -313q213 93 364 252t223 351t72 404q0 241 -94.5 440.5t-280.5 340.5l27 43q249 -144 374.5 -362.5t125.5 -487.5q0 -126 -30.5 -248t-95 -239t-158 -218t-225 -184.5t-290.5 -138.5z" />
<glyph unicode="*" horiz-adv-x="868" d="M104 889l328 63l2 19l-272 192l69 86l224 -256l14 2l29 338l112 -24l-112 -320l12 -8l309 143l29 -106l-328 -64l-4 -18l272 -193l-67 -86l-225 256l-15 -2l-28 -338l-111 25l111 320l-13 8l-309 -144z" />
<glyph unicode="+" d="M96 578l21 100h381l82 379h106l-82 -379h379l-20 -100h-379l-82 -385h-107l82 385h-381z" />
<glyph unicode="," horiz-adv-x="473" d="M-41 -297q110 65 177 141t81 142l-12 8l-6 -2q-12 -4 -27 -4q-40 0 -66 25t-26 71q0 51 39 89t92 38q56 0 94.5 -40t38.5 -108q0 -120 -102 -224t-258 -173z" />
<glyph unicode="-" horiz-adv-x="749" d="M61 412l23 137h524l-22 -137h-525z" />
<glyph unicode="." horiz-adv-x="473" d="M92 90q0 51 36.5 87t88.5 36q51 0 87 -36t36 -87t-36 -87t-87 -36q-52 0 -88.5 36t-36.5 87z" />
<glyph unicode="/" horiz-adv-x="851" d="M-242 -387l564 942l565 963l80 -41l-564 -945l-563 -962z" />
<glyph unicode="0" horiz-adv-x="1136" d="M82 416q0 173 52 334.5t137.5 277.5t199.5 186t234 70q93 0 164.5 -34.5t114 -96t64 -140t21.5 -173.5q0 -173 -52 -334.5t-137.5 -278t-199.5 -186.5t-234 -70q-93 0 -164.5 34.5t-114 96t-64 140.5t-21.5 174zM270 399q0 -164 56 -259t159 -95q50 0 104 34t106 104 t93.5 164.5t67 227.5t25.5 281q0 164 -56 259t-159 95q-50 0 -104 -34t-106 -104t-93.5 -164.5t-67 -227.5t-25.5 -281z" />
<glyph unicode="1" horiz-adv-x="798" d="M-16 0l10 53l244 68l202 954l-213 84l9 45l389 66l18 -17l-240 -1132l211 -68l-12 -53h-618z" />
<glyph unicode="2" horiz-adv-x="1021" d="M-68 45q311 237 490 410q184 178 248.5 284t64.5 207q0 98 -54.5 153.5t-152.5 55.5q-74 0 -139 -36.5t-160 -125.5l-36 31q171 262 419 262q142 0 226 -78t84 -211q0 -84 -28.5 -155.5t-109.5 -169t-222.5 -218.5t-373.5 -296l7 -15h448l207 209l29 -12l-129 -340h-805z " />
<glyph unicode="3" horiz-adv-x="964" d="M-18 178q0 57 30.5 92t79.5 35q74 0 99 -65.5t-13 -151.5q76 -45 178 -45q121 0 197 74t76 202q0 228 -334 279l6 43q404 153 404 363q0 70 -46.5 110.5t-134.5 40.5q-68 0 -134 -31t-150 -98l-35 39q99 112 195 166.5t212 54.5q117 0 188.5 -68.5t71.5 -164.5 q0 -117 -75.5 -198.5t-237.5 -158.5l-2 -24q238 -100 238 -303q0 -76 -33.5 -148t-92.5 -128t-147.5 -90t-191.5 -34q-143 0 -245.5 59.5t-102.5 149.5z" />
<glyph unicode="4" horiz-adv-x="1112" d="M66 455l745 829l129 -12l-164 -772h238l-21 -107h-237l-60 -272l199 -68l-10 -53h-568l11 53l211 68l59 272h-516zM219 500h399l121 567h-20z" />
<glyph unicode="5" horiz-adv-x="950" d="M6 186q0 56 32.5 91.5t80.5 35.5q78 0 103.5 -68t-15.5 -157q62 -45 155 -45q129 0 210 88.5t81 218.5q0 308 -489 330l162 573h473l98 99l37 -6l-66 -254h-493l-82 -275q245 -18 385.5 -120.5t140.5 -297.5q0 -126 -62.5 -225.5t-165 -152t-222.5 -52.5q-151 0 -257 66 t-106 151z" />
<glyph unicode="6" horiz-adv-x="1015" d="M90 399q0 158 62.5 306t176 268.5t281.5 209t371 126.5l8 -58q-241 -93 -382 -200t-247 -267l17 -12q109 51 194 51q153 0 239.5 -90t86.5 -252q0 -128 -58.5 -246t-161.5 -192t-220 -74q-160 0 -263.5 116.5t-103.5 313.5zM270 375q0 -163 54 -250.5t143 -87.5 q113 0 181.5 109.5t68.5 297.5q0 143 -64 214t-184 71q-89 0 -135 -16q-64 -140 -64 -338z" />
<glyph unicode="7" horiz-adv-x="927" d="M6 -31l383 500l445 629h-498l-141 -158l-41 6l112 381l39 6l39 -80h660l10 -24l-824 -1260h-184z" />
<glyph unicode="8" horiz-adv-x="1019" d="M53 287q0 235 334 350q-97 71 -138.5 139t-41.5 160q0 146 115.5 246t271.5 100q166 0 270.5 -86t104.5 -219q0 -213 -318 -328q117 -77 170 -154t53 -173q0 -105 -61 -187t-155.5 -123t-200.5 -41q-171 0 -287.5 91.5t-116.5 224.5zM213 283q0 -113 72 -178.5t198 -65.5 q92 0 165 65t73 168q0 89 -56 155.5t-214 168.5q-238 -116 -238 -313zM356 985q0 -90 53 -153t181 -144q117 73 171 142t54 167q0 96 -62 155.5t-165 59.5q-91 0 -161.5 -67t-70.5 -160z" />
<glyph unicode="9" horiz-adv-x="1015" d="M51 4q174 66 298.5 144.5t200.5 158t142 185.5l-16 12q-109 -51 -197 -51q-156 0 -246 90t-90 252q0 120 59 233.5t162 185.5t220 72q160 0 263 -116.5t103 -313.5q0 -211 -106.5 -398.5t-310.5 -323.5t-474 -187zM324 831q0 -150 66 -217t192 -67q91 0 137 16 q51 139 51 318q0 163 -54 250.5t-143 87.5q-111 0 -180 -109.5t-69 -278.5z" />
<glyph unicode=":" horiz-adv-x="493" d="M111 90q0 51 36.5 87t88.5 36q51 0 86.5 -36t35.5 -87t-35.5 -87t-86.5 -36q-52 0 -88.5 36t-36.5 87zM223 698q0 51 36.5 87t88.5 36q51 0 87 -36t36 -87t-36 -87t-87 -36q-52 0 -88.5 36t-36.5 87z" />
<glyph unicode=";" horiz-adv-x="493" d="M-20 -297q110 65 177 141t81 142l-13 8l-6 -2q-12 -4 -26 -4q-40 0 -66.5 25.5t-26.5 70.5q0 51 39 89t92 38q56 0 95 -40t39 -108q0 -120 -102.5 -224t-258.5 -173zM223 698q0 51 36.5 87t88.5 36q51 0 87 -36t36 -87t-36 -87t-87 -36q-52 0 -88.5 36t-36.5 87z" />
<glyph unicode="&#x3c;" d="M133 580l21 96l809 383l6 -94l-727 -344l581 -342l-45 -84z" />
<glyph unicode="=" d="M57 385l21 100h846l-21 -100h-846zM139 768l21 100h846l-21 -100h-846z" />
<glyph unicode="&#x3e;" d="M94 289l727 344l-581 342l45 84l645 -385l-21 -96l-809 -383z" />
<glyph unicode="?" horiz-adv-x="847" d="M145 92q0 51 36 87t87 36t87 -36t36 -87t-36 -87t-87 -36t-87 36t-36 87zM188 584q0 94 63 154t230 116q129 43 184.5 97.5t55.5 142.5q0 83 -60 132.5t-153 49.5q-50 0 -88 -21q12 -27 12 -63q0 -67 -33.5 -104t-81.5 -37q-47 0 -77.5 29.5t-30.5 84.5q0 71 75 120.5 t197 49.5q162 0 266.5 -84t104.5 -211q0 -119 -78.5 -194t-243.5 -131q-126 -43 -165 -73t-39 -79q0 -53 53 -77t158 -9l14 -39q-57 -39 -143 -39q-92 0 -156 51t-64 134z" />
<glyph unicode="@" horiz-adv-x="1892" d="M123 444q0 150 46.5 288t131.5 246.5t200 189t257.5 124t296.5 43.5q206 0 375.5 -82t267.5 -229t98 -328q0 -137 -45 -255.5t-116.5 -195.5t-158.5 -121t-173 -44q-104 0 -165 45t-73 121l-16 4q-72 -78 -131 -116t-125 -38q-90 0 -146.5 61t-56.5 169q0 96 47 201.5 t117.5 187t158.5 135t166 53.5q52 0 82.5 -11.5t63.5 -35.5l84 94l32 -10l-129 -582q-22 -93 9.5 -153t103.5 -60q67 0 130 38.5t112 105t78.5 165.5t29.5 212q0 127 -51.5 238.5t-140.5 191t-213 125t-264 45.5q-154 0 -293 -59.5t-240.5 -161.5t-161 -246t-59.5 -305 q0 -221 91 -394t265 -272.5t406 -99.5q143 0 261 30.5t241 96.5l30 -31q-247 -189 -577 -189q-242 0 -433 96t-302 281.5t-111 431.5zM731 377q0 -91 36 -134.5t95 -43.5q44 0 88.5 29.5t130.5 113.5l90 399q-66 72 -145 72q-74 0 -143 -62.5t-110.5 -164t-41.5 -209.5z" />
<glyph unicode="A" horiz-adv-x="1409" d="M-133 0l10 55l189 58l700 1204h121l190 -1215l197 -47l-12 -55h-619l10 55l226 37l-52 371h-462l-197 -350l147 -58l-10 -55h-438zM412 547h405l-76 557h-18z" />
<glyph unicode="B" horiz-adv-x="1245" d="M-61 0l12 55l235 37l234 1120l-221 37l12 56h543q194 0 291.5 -66t97.5 -186q0 -133 -97.5 -223.5t-257.5 -131.5l-2 -22q151 -30 225 -96.5t74 -186.5q0 -116 -80.5 -207.5t-207 -138.5t-271.5 -47h-587zM367 78q69 -15 137 -15q174 0 276.5 97t102.5 252q0 117 -75 175 t-208 58h-115zM500 715h110q161 0 249.5 89.5t88.5 235.5q0 104 -59 152.5t-162 48.5q-58 0 -119 -12z" />
<glyph unicode="C" horiz-adv-x="1353" d="M100 528q0 159 58.5 307t156.5 258t236 176t289 66q200 0 350 -88l98 86h45l-86 -438l-45 -2q-44 195 -132.5 287t-229.5 92q-97 0 -193 -56.5t-172 -154.5t-123 -243.5t-47 -309.5q0 -215 109.5 -339t277.5 -124q102 0 166 25l264 290l29 -8l-78 -297q-196 -86 -407 -86 q-252 0 -409 151.5t-157 407.5z" />
<glyph unicode="D" horiz-adv-x="1454" d="M-61 0l12 55l235 37l234 1120l-221 37l12 56h563q279 0 441.5 -137t162.5 -388q0 -159 -59.5 -300t-167.5 -248t-273 -169.5t-364 -62.5h-575zM369 78h163q149 0 271 56t202.5 153t124.5 227.5t44 280.5q0 205 -108 318.5t-314 113.5h-144z" />
<glyph unicode="E" horiz-adv-x="1286" d="M-61 0l12 55l235 37l234 1120l-221 37l12 56h1001l-24 -351l-35 -14l-98 174q-26 46 -48 67t-57.5 30.5t-101.5 9.5h-242l-110 -527h106q94 0 147 38t103 147l31 67h41l-121 -575h-41l-6 63q-11 110 -45 148.5t-127 38.5h-105l-108 -535h309q90 0 130.5 17t92.5 75 l207 230l27 -9l-121 -399h-1077z" />
<glyph unicode="F" horiz-adv-x="1218" d="M-61 0l12 55l235 37l234 1120l-221 37l12 56h1010l-25 -351l-35 -14l-98 174q-26 46 -48.5 67t-58 30.5t-100.5 9.5h-250l-110 -535h116q96 0 153 39t107 147l31 68h41l-119 -575h-43l-4 63q-7 105 -47.5 144.5t-134.5 39.5h-117l-106 -520l233 -37l-12 -55h-655z" />
<glyph unicode="G" horiz-adv-x="1404" d="M100 532q0 115 34 230.5t100 218t154.5 182t205.5 126t244 46.5q183 0 329 -82l97 88h45l-78 -438l-55 -4q-48 198 -128.5 285.5t-218.5 87.5q-97 0 -191.5 -56t-168 -153.5t-119 -242.5t-45.5 -310q0 -222 93.5 -336.5t248.5 -114.5q117 0 256 82l80 346l-195 37l13 56 h565l-12 -56l-185 -37l-106 -503l-41 -9l-102 105q-85 -56 -162 -83.5t-170 -27.5q-222 0 -355 149t-133 414z" />
<glyph unicode="H" horiz-adv-x="1662" d="M-61 0l12 55l235 37l234 1120l-221 37l12 56h635l-12 -56l-228 -37l-102 -493h684l102 493l-217 37l12 56h637l-12 -56l-233 -37l-234 -1120l219 -37l-12 -55h-637l12 55l232 37l112 543h-684l-112 -543l213 -37l-13 -55h-634z" />
<glyph unicode="I" horiz-adv-x="851" d="M-41 0l12 55l244 37l234 1120l-228 37l12 56h658l-14 -56l-242 -37l-234 -1120l226 -37l-13 -55h-655z" />
<glyph unicode="J" horiz-adv-x="1034" d="M-51 150q0 60 35 99.5t92 39.5q76 0 105 -72q12 -29 12 -64q0 -50 -25 -112q24 -3 46 -3q119 0 190 72q86 85 122 255l179 847l-238 37l12 56h651l-12 -56l-225 -37l-162 -761q-29 -136 -70.5 -224t-111.5 -147q-135 -115 -320 -115q-146 0 -213 55.5t-67 129.5z" />
<glyph unicode="K" horiz-adv-x="1427" d="M-61 0l12 55l235 37l234 1120l-221 37l12 56h625l-13 -56l-217 -37l-108 -518h161l500 496l-149 59l10 56h477l-12 -56l-205 -65l-512 -479l352 -605l172 -45l-10 -55h-551l12 55l170 35l-278 520h-156l-106 -518l202 -37l-10 -55h-626z" />
<glyph unicode="L" horiz-adv-x="1232" d="M-61 0l12 55l235 37l234 1120l-221 37l12 56h635l-12 -56l-228 -37l-233 -1126h295q91 0 130 16t93 76l205 230l28 -9l-120 -399h-1065z" />
<glyph unicode="M" horiz-adv-x="1939" d="M-16 0l12 55l194 56l228 1097l-172 41l10 56h465l33 -211l131 -828h26l473 828l117 211h496l-12 -56l-232 -37l-233 -1120l215 -37l-13 -55h-610l12 55l211 37l230 1108h-23l-704 -1200h-90l-216 1200h-24l-225 -1089l170 -56l-13 -55h-456z" />
<glyph unicode="N" horiz-adv-x="1554" d="M-25 0l13 55l192 56l226 1085l-173 53l13 56h389l98 -209l373 -754h24l175 852l-172 55l12 56h457l-11 -56l-194 -55l-248 -1206h-84l-98 209l-465 907h-23l-205 -993l170 -56l-10 -55h-459z" />
<glyph unicode="O" horiz-adv-x="1441" d="M102 539q0 117 33.5 232.5t97 216t149.5 178t198 122.5t235 45q243 0 382.5 -155t139.5 -412q0 -146 -53 -289t-144.5 -255t-227 -181.5t-287.5 -69.5q-243 0 -383 155.5t-140 412.5zM307 479q0 -127 32 -225t102.5 -158.5t172.5 -60.5q99 0 193.5 61.5t166 166 t115.5 252.5t44 310q0 127 -32 225t-103 159t-173 61q-79 0 -156 -39t-141.5 -112t-114.5 -169.5t-78 -218.5t-28 -252z" />
<glyph unicode="P" horiz-adv-x="1234" d="M-61 0l12 55l235 37l234 1120l-221 37l12 56h539q214 0 329 -83.5t115 -240.5q0 -175 -148 -300.5t-372 -125.5q-99 0 -201 23l-100 -486l233 -37l-12 -55h-655zM487 643q62 -10 129 -10q188 0 279.5 96.5t91.5 259.5q0 120 -71 183t-193 63q-49 0 -115 -12z" />
<glyph unicode="Q" horiz-adv-x="1441" d="M102 539q0 117 33.5 232.5t97 216t149.5 178t198 122.5t235 45q243 0 382.5 -155t139.5 -412q0 -186 -80.5 -358.5t-231.5 -291t-337 -136.5q43 -109 78.5 -173t85.5 -102q29 -24 70.5 -40.5t68.5 -22.5t86 -17l-12 -53h-133q-113 0 -167 12t-99 49q-61 50 -113 197 l-55 158q-187 38 -291.5 185t-104.5 366zM307 479q0 -127 32 -226t102.5 -160.5t172.5 -61.5q99 0 193.5 62.5t166 167.5t115.5 253.5t44 310.5q0 127 -32 225t-103 159t-173 61q-79 0 -156 -39t-141.5 -112t-114.5 -169.5t-78 -218.5t-28 -252z" />
<glyph unicode="R" horiz-adv-x="1345" d="M-61 0l12 55l235 37l234 1120l-221 37l12 56h594q191 0 297 -71.5t106 -203.5q0 -149 -115 -250t-309 -139l-2 -23q69 -25 105 -69.5t61 -134.5q4 -13 12 -42t12 -42t11.5 -38.5t12 -38.5t11.5 -33t13 -32.5t13.5 -27t15.5 -25t16 -18.5q31 -31 67 -42.5t113 -19.5 l-14 -55h-207q-103 0 -143.5 40t-77.5 177l-64 236q-25 89 -56.5 119t-100.5 30h-105l-104 -510l213 -37l-13 -55h-634zM492 676h145q169 0 266.5 96.5t97.5 247.5q0 104 -68 159.5t-190 55.5q-75 0 -137 -12z" />
<glyph unicode="S" horiz-adv-x="1079" d="M0 -14l86 446l55 2q43 -226 127 -315.5t226 -89.5q109 0 174 75.5t65 186.5q0 102 -53.5 166.5t-187.5 146.5q-132 81 -197.5 162.5t-65.5 194.5q0 159 114 263.5t288 104.5q74 0 142 -20.5t114 -51.5l80 66l49 -2l-64 -391l-53 -2q-41 181 -107 263.5t-165 82.5 q-105 0 -167.5 -65.5t-62.5 -168.5q0 -63 28 -112t73.5 -85t134.5 -91q144 -90 209 -173t65 -204q0 -96 -42 -175t-108 -127t-141.5 -74t-148.5 -26q-188 0 -336 76l-82 -65z" />
<glyph unicode="T" horiz-adv-x="1294" d="M123 936l133 369h1063l-4 -369l-35 -12l-72 157q-39 87 -83 116.5t-126 29.5h-135l-235 -1135l235 -37l-10 -55h-672l8 55l252 37l236 1135h-133q-82 0 -135 -28t-127 -118l-131 -157z" />
<glyph unicode="U" horiz-adv-x="1501" d="M186 1249l13 56h647l-10 -56l-238 -37l-147 -698q-15 -73 -16 -134q1 -104 45 -174q70 -112 257 -112q320 0 393 344l160 756l-172 55l12 56h457l-12 -56l-193 -55l-165 -782q-45 -216 -180.5 -330.5t-354.5 -114.5q-243 0 -360 141q-81 97 -81 247q0 68 17 147l150 710z " />
<glyph unicode="V" horiz-adv-x="1388" d="M135 1249l12 56h619l-10 -56l-226 -37l142 -983l549 963l-148 57l10 56h439l-11 -56l-188 -57l-711 -1204h-77l-203 1214z" />
<glyph unicode="W" horiz-adv-x="1992" d="M154 1249l8 56h569l-10 -56l-186 -37l67 -964l463 844l-14 110l-156 47l10 56h545l-8 -56l-209 -37l110 -968l478 948l-152 57l8 56h432l-10 -56l-180 -57l-639 -1204h-72l-127 970l-549 -970h-71l-119 1214z" />
<glyph unicode="X" horiz-adv-x="1443" d="M-59 0l12 55l190 56l504 524l-272 567l-180 47l12 56h577l-10 -50l-196 -36l194 -457l393 444l-149 49l12 50h451l-13 -56l-190 -55l-471 -494l291 -598l180 -47l-12 -55h-578l10 49l197 37l-213 489l-426 -477l149 -49l-12 -49h-450z" />
<glyph unicode="Y" horiz-adv-x="1349" d="M127 1249l12 56h590l-12 -56l-205 -37l221 -550l438 538l-157 49l12 56h461l-12 -56l-185 -55l-520 -596l-106 -506l227 -37l-10 -55h-660l12 55l244 37l103 488l-275 622z" />
<glyph unicode="Z" horiz-adv-x="1320" d="M-14 31l1061 1196h-383q-81 0 -130 -21t-118 -86l-174 -164l-27 15l117 334h973l2 -31l-1063 -1194h454q86 0 127 16t93 72l206 219l27 -8l-131 -379h-1032z" />
<glyph unicode="[" horiz-adv-x="661" d="M-10 -360l393 1878h516l-16 -70h-365l-362 -1739h364l-14 -69h-516z" />
<glyph unicode="\" horiz-adv-x="931" d="M123 1479l90 39l324 -963l333 -944l-90 -41l-321 962z" />
<glyph unicode="]" horiz-adv-x="595" d="M-246 -360l17 69h364l363 1739h-365l14 70h517l-394 -1878h-516z" />
<glyph unicode="^" horiz-adv-x="628" d="M154 1112l309 358h55l154 -358l-39 -33l-182 211l-267 -211z" />
<glyph unicode="_" horiz-adv-x="901" d="M-4 0v84h909v-84h-909z" />
<glyph unicode="`" horiz-adv-x="503" d="M258.5 1435.5q11.5 32.5 44.5 47.5q32 15 61.5 2.5t43.5 -45.5q28 -66 81 -330l-36 -18q-159 199 -191 274q-15 37 -3.5 69.5z" />
<glyph unicode="a" horiz-adv-x="1042" d="M53 254q0 118 56 245t141 225t191.5 162t201.5 64q99 0 178 -57l99 113l38 -13l-182 -813q-10 -36 -0.5 -57.5t52.5 -29.5q31 -6 90 -6q22 0 47 1l4 -25q-140 -86 -240 -86q-67 0 -93 50q-14 27 -14 68q0 35 11 81l-21 6q-54 -59 -82 -87t-69.5 -60.5t-80 -45 t-83.5 -12.5q-110 0 -177 73t-67 204zM225 315q0 -107 43 -160t115 -53q52 0 103 35t157 137l107 484q-83 90 -172 90q-90 0 -172 -74t-131.5 -197.5t-49.5 -261.5z" />
<glyph unicode="b" horiz-adv-x="1038" d="M82 63l278 1266l-188 43l2 37l365 107l14 -19l-156 -709l21 -4q80 80 151.5 123t147.5 43q108 0 182 -83.5t74 -225.5q0 -118 -56.5 -240t-144 -214t-198 -151t-212.5 -59q-154 0 -280 86zM256 139q91 -59 203 -59q62 0 123.5 39t110 105t78.5 160t30 196 q0 121 -52.5 187.5t-136.5 66.5q-99 0 -237 -148z" />
<glyph unicode="c" horiz-adv-x="878" d="M72 332q0 149 74.5 291.5t204 234.5t274.5 92q97 0 153 -51.5t56 -112.5q0 -49 -30 -83.5t-73 -34.5q-48 0 -76 31t-28 87q0 49 18 105q-75 -1 -140 -32.5t-111.5 -83.5t-80 -119t-49.5 -139t-16 -144q0 -74 21 -129.5t56.5 -86.5t78 -46t90.5 -15q68 0 125 27.5 t122 81.5l33 -23q-59 -90 -155.5 -146t-212.5 -56q-144 0 -239 100.5t-95 251.5z" />
<glyph unicode="d" horiz-adv-x="1062" d="M59 287q0 118 56.5 240t144 214t198 150.5t212.5 58.5q61 0 139 -20l86 399l-188 43l2 37l364 107l14 -19l-290 -1317q-10 -36 -1 -57.5t52 -29.5q31 -6 90 -6q22 0 47 1l4 -25q-140 -86 -239 -86q-68 0 -94 50q-14 27 -14 68q0 35 11 81l-20 6q-47 -51 -77 -80.5 t-71.5 -62t-83 -47.5t-86.5 -15q-108 0 -182 84t-74 226zM231 348q0 -119 48.5 -182.5t121.5 -63.5q51 0 110 40.5t153 131.5l110 504q-88 70 -201 70q-62 0 -123.5 -39t-110 -105t-78.5 -160t-30 -196z" />
<glyph unicode="e" horiz-adv-x="897" d="M66 319q0 82 25 170t73 170t111.5 147t147.5 104.5t173 39.5q118 0 186 -55.5t68 -144.5q0 -158 -160 -238q-139 -69 -370 -70q-35 0 -72 2q-4 -38 -4 -72q0 -112 48 -184q62 -94 200 -94t253 109l33 -23q-59 -90 -154 -146.5t-218 -56.5q-153 0 -246.5 92.5t-93.5 249.5 zM256 502q50 -6 95 -6q136 0 226 52q119 70 119 210q0 62 -37.5 99.5t-95.5 37.5q-104 0 -188.5 -110t-118.5 -283z" />
<glyph unicode="f" horiz-adv-x="634" d="M-236 -340q0 39 31 64.5t80 25.5q88 0 158 -104q68 85 110 313l150 854h-215l10 47l225 58l13 69q30 163 84.5 266t154.5 179q116 86 248 86q96 0 148.5 -43t52.5 -99q0 -42 -30.5 -71t-78.5 -29q-56 0 -95 42.5t-52 123.5q-98 -1 -166.5 -114.5t-104.5 -317.5l-18 -103 h231l-18 -94h-229l-111 -635q-40 -228 -83.5 -332.5t-137.5 -195.5q-104 -99 -215 -99q-66 0 -104 32.5t-38 76.5z" />
<glyph unicode="g" horiz-adv-x="989" d="M-82 -193q0 190 318 291l57 228q-77 31 -123.5 92t-46.5 147q0 153 126 269t298 116q149 0 244 -98q50 56 110 94.5t109 38.5q46 0 73 -25.5t27 -66.5q0 -43 -23 -72.5t-65 -29.5q-32 0 -54.5 25t-31.5 67l-125 -54q55 -71 55 -155q0 -155 -119.5 -267t-302.5 -112 q-32 0 -67 6q-9 -42 -9 -70q0 -20 5 -32q11 -29 61 -39q201 -46 295 -116.5t94 -174.5q0 -94 -65 -167.5t-166.5 -110.5t-216.5 -37q-120 0 -225 32.5t-168.5 91t-63.5 129.5zM74 -176q0 -97 92 -153t223 -56q125 0 206 53t81 146q0 83 -95.5 138.5t-330.5 98.5 q-88 -46 -132 -105.5t-44 -121.5zM287 563q0 -103 47 -162t125 -59q73 0 139 66q47 47 75.5 123t28.5 159q0 100 -47 155.5t-127 55.5q-78 0 -139 -61q-48 -48 -75 -123t-27 -154z" />
<glyph unicode="h" horiz-adv-x="1089" d="M68 0l292 1329l-188 43l2 37l365 107l14 -19l-168 -766l18 -4q113 111 195.5 167t165.5 56q124 0 172 -84q27 -48 27 -118q0 -52 -15 -115l-110 -463q-9 -35 1.5 -51t52 -23.5t136.5 -7.5l4 -25q-63 -38 -133 -62t-121 -24q-58 1 -83 29q-23 26 -23 67v7q3 47 18 108 l96 410q12 48 12 85q0 47 -18 77q-32 55 -114 55q-56 0 -117.5 -35.5t-179.5 -126.5l-144 -653h-157z" />
<glyph unicode="i" horiz-adv-x="581" d="M98 819l2 37l346 107l17 -17l-176 -776q-3 -14 -4 -25q-1 -31 25 -41q34 -14 165 -16l4 -25q-63 -38 -134 -62t-124 -24q-61 0 -85 43q-16 28 -16 63q0 19 5 40l147 653zM342 1288q0 65 41.5 118.5t99.5 53.5q40 0 65 -24.5t25 -71.5q0 -66 -40.5 -120t-98.5 -54 q-40 0 -66 25.5t-26 72.5z" />
<glyph unicode="j" horiz-adv-x="542" d="M-260 -350q0 38 29 63t79 25q37 0 77.5 -25t66.5 -65q73 76 119 305l161 819l-176 47l2 37l342 107l17 -17l-150 -768q-42 -220 -91 -331t-138 -197q-102 -99 -217 -99q-57 0 -89 28.5t-32 70.5zM322 1288q0 65 41.5 118.5t99.5 53.5q40 0 65 -24.5t25 -71.5 q0 -66 -40.5 -120t-98.5 -54q-40 0 -66 25.5t-26 72.5z" />
<glyph unicode="k" horiz-adv-x="997" d="M68 0l292 1329l-188 43l2 37l365 107l14 -19l-213 -967q132 31 236 84.5t149 100.5q-27 59 -27 104q0 60 34.5 97.5t82.5 37.5q47 0 73.5 -31.5t26.5 -78.5q0 -108 -107.5 -179.5t-338.5 -136.5l-2 -18q64 -4 106 -20t63 -39t38 -60q11 -24 21.5 -53t15.5 -46.5 t16.5 -58.5t15.5 -55q11 -37 25 -55t60 -29q32 -8 83 -8q23 0 50 2l2 -25q-140 -86 -230 -86q-63 0 -97.5 35t-55.5 135q-23 112 -41 170.5t-47.5 94.5t-63 46t-98.5 15l-105 -473h-157z" />
<glyph unicode="l" horiz-adv-x="561" d="M104 123l267 1206l-189 43l2 37l365 107l14 -19l-295 -1327q-3 -14 -4 -25q0 -31 26 -41q34 -14 165 -16l4 -25q-61 -37 -133.5 -61.5t-124.5 -24.5q-61 1 -85 43q-16 28 -17 63q0 19 5 40z" />
<glyph unicode="m" horiz-adv-x="1673" d="M88 0l172 776l-172 43l2 37l346 107l17 -17l-58 -217l21 -4q77 74 127.5 116t115 75.5t119.5 33.5q94 0 142 -60q43 -55 43 -142v-19l20 -4q112 108 198 166.5t156 58.5q115 0 163 -82q28 -48 27 -116q0 -49 -14 -109l-112 -473q-9 -35 1.5 -51t52 -23.5t136.5 -7.5 l4 -25q-63 -38 -133 -62t-121 -24q-58 1 -83 29q-23 26 -23 67v7q3 47 18 108l99 420q10 42 10 76q0 45 -17 76q-30 55 -106 55q-84 0 -283 -162l-143 -653h-158l138 608q9 40 9 73q0 47 -18 79q-31 55 -104 55q-92 0 -291 -162l-143 -653h-158z" />
<glyph unicode="n" horiz-adv-x="1110" d="M88 0l172 776l-172 43l2 37l346 107l17 -17l-58 -217l21 -4q119 112 205 168.5t163 56.5q124 0 172 -84q28 -48 27 -118q0 -51 -14 -115l-111 -463q-9 -35 1.5 -51t52.5 -23.5t137 -7.5l4 -25q-63 -38 -133 -62t-121 -24q-57 0 -83 29q-24 27 -24 68v6q3 41 19 108 l96 410q11 47 11 84q0 47 -18 78q-33 55 -114 55q-56 0 -117.5 -35.5t-179.5 -126.5l-143 -653h-158z" />
<glyph unicode="o" horiz-adv-x="1007" d="M70 322q0 110 42 222t114 202t177.5 147t221.5 57q134 0 223.5 -92t89.5 -252q0 -110 -42 -222t-114 -202.5t-177.5 -147.5t-221.5 -57q-134 0 -223.5 92.5t-89.5 252.5zM246 365q0 -137 56.5 -222.5t152.5 -85.5q90 0 162.5 81.5t108.5 196t36 228.5q0 137 -56.5 222 t-152.5 85q-90 0 -162.5 -81t-108.5 -195.5t-36 -228.5z" />
<glyph unicode="p" horiz-adv-x="1058" d="M-156 -430l13 49l155 43l248 1114l-172 43l2 37l346 107l17 -17l-54 -194l21 -7q48 52 77 80.5t71 62t83 48t86 14.5q108 0 182 -83.5t74 -225.5q0 -118 -56.5 -240t-143.5 -214t-197.5 -151t-212.5 -59q-83 0 -139 17l-74 -332l168 -49l-10 -43h-484zM276 139 q91 -59 203 -59q62 0 123.5 39t110 105t78.5 160t30 196q0 119 -48.5 182t-121.5 63q-51 0 -109 -40.5t-153 -131.5z" />
<glyph unicode="q" horiz-adv-x="1038" d="M59 287q0 118 56.5 240t144 214t198 150.5t212.5 58.5q104 0 176 -37l94 93l39 -13l-293 -1333l137 -41l-8 -49h-483l8 43l188 49l117 518l-20 4q-75 -95 -150 -151t-160 -56q-108 0 -182 84t-74 226zM231 348q0 -119 48.5 -182.5t121.5 -63.5q51 0 110 40.5t153 131.5 l112 514q-93 60 -203 60q-62 0 -123.5 -39t-110 -105t-78.5 -160t-30 -196z" />
<glyph unicode="r" horiz-adv-x="835" d="M88 0l172 776l-172 43l2 37l336 107l16 -17l-51 -221l21 -6q91 116 163 175.5t142 59.5q54 0 84 -28t30 -78q0 -49 -32.5 -81t-75.5 -32q-66 0 -121 78q-110 -55 -219 -182l-137 -631h-158z" />
<glyph unicode="s" horiz-adv-x="815" d="M23 168q0 55 31.5 92t72.5 37q63 0 83 -59q7 -21 7 -47q0 -44 -22 -101q64 -41 170 -41q80 0 136 42.5t56 111.5q0 55 -31 94.5t-118 91.5l-56 33q-95 55 -139.5 106t-44.5 136q0 110 103 197t235 87q122 0 187 -46.5t65 -104.5q0 -41 -24 -69t-62 -28q-46 0 -78.5 41.5 t-42.5 124.5q-54 13 -76 13q-69 0 -120.5 -44.5t-51.5 -101.5q0 -51 33.5 -87t116.5 -85l55 -33q105 -63 146.5 -117t41.5 -135q0 -127 -103 -211.5t-241 -84.5q-152 0 -240.5 54t-88.5 134z" />
<glyph unicode="t" horiz-adv-x="708" d="M121 813l8 39l193 117l98 213l88 -19l-57 -256h260l-21 -94h-260l-119 -537q-11 -42 -11 -75v-16q4 -38 30 -58q32 -25 141 -25q48 0 123 7v-31q-89 -47 -157 -70.5t-140 -23.5q-171 0 -171 142q0 33 9 73l137 614h-151z" />
<glyph unicode="u" horiz-adv-x="1110" d="M72 819l2 37l346 107l16 -17l-141 -616q-10 -46 -10 -82q0 -48 18 -80q32 -55 113 -55q57 0 118.5 35t178.5 126l108 502l-172 43l2 37l346 107l17 -17l-168 -776q-8 -36 2.5 -51.5t52 -23t135.5 -7.5l4 -25q-144 -86 -243 -86q-56 0 -83 33q-24 30 -24 72v10 q3 49 17 107l-21 4q-119 -112 -205.5 -169t-163.5 -57q-123 0 -171 84q-27 48 -28 119q0 52 15 115l115 481z" />
<glyph unicode="v" horiz-adv-x="1028" d="M47 807q47 55 113.5 99t115.5 44q51 0 81.5 -27t48.5 -83q31 -97 51 -284.5t20 -377.5l19 -4q248 270 317 455q-49 104 -49 176q0 69 32 107t83 38q44 0 72 -36.5t28 -98.5q0 -80 -49 -181t-141 -215t-195.5 -223t-239.5 -237l-53 33l31 67q-19 460 -82 674 q-11 39 -30 56.5t-52 17.5q-29 0 -109 -25z" />
<glyph unicode="w" horiz-adv-x="1511" d="M47 807q47 55 113.5 99t115.5 44q52 0 83 -27t49 -83q30 -98 49.5 -281t19.5 -366l19 -5q179 261 282 471q-16 107 -30 222l147 82h10q13 -108 53.5 -381.5t55.5 -399.5l18 -4q218 280 268 457q-51 116 -51 178q0 67 31 102t76 35q51 0 78.5 -37.5t27.5 -103.5 q0 -84 -47 -190t-129.5 -218.5t-177.5 -219t-209 -216.5l-53 23l26 71q-23 137 -73 461q-170 -273 -437 -555l-53 23l25 61q-21 470 -84 684q-20 74 -78 74q-36 0 -113 -25z" />
<glyph unicode="x" horiz-adv-x="1021" d="M-4 68q0 43 30 73.5t74 30.5q54 0 99 -51q78 55 247 317q-69 217 -110 299q-22 45 -41.5 63t-59.5 25q-14 2 -31 2q-31 0 -73 -8l-8 27q119 104 203 104q58 0 91.5 -27.5t63.5 -100.5t76 -238l16 -2q127 220 199.5 296t147.5 76q47 0 75.5 -27t28.5 -69 q0 -43 -31.5 -73.5t-72.5 -30.5q-55 0 -101 55q-42 -33 -108.5 -120t-130.5 -193q52 -181 108 -308q28 -64 64 -78q18 -7 53 -7t86 6l6 -25q-116 -107 -197 -107q-36 0 -61 10t-46 32t-40 68.5t-37 106t-43 158.5l-22 2q-127 -222 -201.5 -301.5t-143.5 -79.5 q-49 0 -79.5 27.5t-30.5 67.5z" />
<glyph unicode="y" horiz-adv-x="987" d="M-90 -303q0 52 29.5 87.5t74.5 35.5q54 0 82 -56q21 -44 21 -105q0 -17 -2 -36q174 94 299 316q-18 202 -61.5 420t-84.5 337q-22 65 -46 87t-64 22q-27 0 -101 -23l-12 25q49 62 111.5 102.5t113.5 40.5q60 0 94.5 -31.5t57.5 -111.5q80 -277 108 -627h21 q127 323 254 783h8l158 -82q-48 -93 -128 -258.5t-143.5 -293.5t-139.5 -268t-151 -244.5t-143 -160.5q-64 -52 -112.5 -78.5t-100.5 -26.5q-66 0 -104.5 42.5t-38.5 103.5z" />
<glyph unicode="z" horiz-adv-x="946" d="M-8 16l735 772q-246 33 -418 33q-61 0 -86 -14v-10q78 -47 78 -109q0 -38 -25 -63t-63 -25q-39 0 -68.5 35t-29.5 78q0 42 22 79.5t80 92.5q37 36 74.5 50.5t103.5 14.5q107 0 228 -28l172 -43l141 98l45 -37l-725 -762l272 -45q39 -6 70 -6q48 -1 76 13q48 22 145 128 l25 -12q-61 -166 -100 -222.5t-91 -56.5q-71 0 -213 33l-272 68l-131 -98z" />
<glyph unicode="{" horiz-adv-x="794" d="M51 551l12 65q157 19 229 78t99 197l43 221q24 125 64.5 204.5t110 125t160 62t226.5 14.5l-10 -54q-101 -11 -161.5 -28t-107 -53.5t-71.5 -93.5t-43 -150l-41 -209q-17 -88 -45.5 -147.5t-74 -96.5t-96 -56.5t-128.5 -35.5l-4 -21q47 -11 80.5 -22t63.5 -28.5 t46.5 -41.5t27 -58t9 -79.5t-13.5 -105.5l-29 -150q-36 -184 16 -268.5t230 -116.5l-10 -53q-259 14 -347.5 121.5t-41.5 355.5l28 149q27 138 -22 197t-199 78z" />
<glyph unicode="|" horiz-adv-x="602" d="M248 -494l10 965l-10 965h106l-10 -965l10 -965h-106z" />
<glyph unicode="}" horiz-adv-x="794" d="M-199 -350l11 53q100 11 161 28t107.5 54t71.5 94t43 150l41 209q17 88 45.5 147.5t74 96t96 56t128.5 35.5l4 21q-47 10 -80.5 21.5t-63.5 29.5t-46.5 42t-27 58t-9 79.5t13.5 105.5l28 149q36 184 -16 268.5t-229 116.5l10 54q175 -9 268 -57.5t124.5 -152t-3.5 -268.5 l-29 -149q-27 -139 22 -197.5t199 -77.5l-12 -65q-157 -19 -228.5 -78t-98.5 -197l-44 -221q-25 -125 -65.5 -204t-110 -125t-159.5 -62t-226 -14z" />
<glyph unicode="~" horiz-adv-x="759" d="M109 528q41 126 88 183t116 57q43 0 98.5 -24.5t104 -49t74.5 -24.5q25 0 45 24t65 99l50 -13q-41 -125 -88.5 -182t-116.5 -57q-43 0 -98.5 24.5t-103.5 49t-75 24.5q-25 0 -45 -24t-63 -99z" />
<glyph unicode="&#xa2;" horiz-adv-x="937" d="M63 332q0 130 64.5 255.5t171.5 213t227 112.5l37 191l74 -8l-37 -174h10q128 0 199.5 -43.5t71.5 -116.5q0 -43 -24.5 -68.5t-61.5 -25.5q-55 0 -86 46t-31 132q-48 16 -92 8l-86 -416l-66 -344q12 -2 39 -2q120 0 254 107l35 -23q-54 -78 -145.5 -131.5t-204.5 -60.5 l-41 -215l-72 6l43 209q-121 12 -200 108.5t-79 239.5zM227 367q0 -203 142 -258l69 337l76 394q-123 -41 -205 -175t-82 -298z" />
<glyph unicode="&#xa3;" horiz-adv-x="1103" d="M-53 49q0 55 70 97t192 51q95 93 138.5 165t43.5 162q0 22 -4 68h-268l16 82h242q-17 108 -17 151q0 199 141 329t349 130q99 0 152 -37.5t53 -91.5q0 -46 -30.5 -74t-80.5 -28q-108 0 -176 153q-120 -34 -175.5 -125t-55.5 -239q0 -23 2.5 -49.5t7 -62.5t6.5 -56h307 l-16 -82h-287v-4q0 -75 -15.5 -131.5t-52 -102.5t-78 -79.5t-112.5 -79.5l4 -25q67 -2 199.5 -17.5t189.5 -15.5q79 0 125.5 47t89.5 181l62 -9q-79 -387 -332 -387q-116 0 -399 152q-39 -69 -94.5 -110.5t-102.5 -41.5q-48 0 -71 21.5t-23 58.5z" />
<glyph unicode="&#xa5;" horiz-adv-x="1273" d="M135 344l15 70h356l33 155h-357l15 70h319l-213 512l-168 47l12 55h553l-12 -55l-186 -37l190 -497l398 485l-138 49l13 55h417l-10 -55l-174 -55l-436 -504h323l-14 -70h-360l-33 -155h360l-16 -70h-358l-52 -252l201 -37l-12 -55h-588l10 55l217 37l52 252h-357z" />
<glyph unicode="&#xa8;" horiz-adv-x="675" d="M158 1229q0 48 35 84.5t86 36.5q47 0 77.5 -31.5t30.5 -79.5t-35 -84.5t-86 -36.5q-47 0 -77.5 31.5t-30.5 79.5zM539 1229q0 49 34.5 85t85.5 36q47 0 78 -32t31 -79q0 -48 -35 -84.5t-86 -36.5q-47 0 -77.5 31.5t-30.5 79.5z" />
<glyph unicode="&#xa9;" horiz-adv-x="1613" d="M88 653q0 145 57 277.5t153 228.5t228.5 152.5t278.5 56.5t279.5 -56.5t229.5 -152.5t153 -228t57 -278q0 -196 -96.5 -361.5t-262 -261.5t-360.5 -96q-146 0 -278.5 56.5t-228.5 152.5t-153 229.5t-57 280.5zM147 653q0 -180 89 -333t240.5 -241.5t328.5 -88.5 q134 0 256.5 52.5t210.5 141t140 211.5t52 258q0 178 -88 330t-240 241t-331 89q-177 0 -328.5 -89t-240.5 -241t-89 -330zM438 643q0 160 112.5 273.5t280.5 113.5q95 0 166 -33l29 45h35l14 -274l-37 -4q-51 111 -106 159t-133 48q-84 0 -142.5 -74t-58.5 -233 q0 -157 71 -241.5t189 -84.5q52 0 76 12l125 166l31 -8l-25 -182q-111 -54 -238 -54q-175 0 -282 101.5t-107 269.5z" />
<glyph unicode="&#xab;" horiz-adv-x="1024" d="M72 444l4 33l459 379l43 -37l-312 -356l160 -371l-55 -31zM481 444l4 33l459 379l43 -37l-311 -356l160 -371l-56 -31z" />
<glyph unicode="&#xad;" horiz-adv-x="749" d="M61 412l23 137h524l-22 -137h-525z" />
<glyph unicode="&#xae;" horiz-adv-x="856" d="M133 973q0 163 109 272t272 109t272 -109t109 -272t-109 -271t-272 -108t-272 108t-109 271zM174 973q0 -148 96 -245t244 -97t244 97t96 245t-96.5 246t-243.5 98t-243.5 -98t-96.5 -246zM317 786v25l70 16v308l-70 14v27h224q66 0 102.5 -28t36.5 -71q0 -80 -117 -100 v-14q37 -5 56 -17.5t28 -38.5q21 -56 41 -76q17 -17 60 -20v-25h-89q-34 0 -47 12.5t-30 53.5l-27 61q-10 24 -23.5 32.5t-39.5 8.5h-25v-127l68 -16v-25h-218zM467 987h49q35 0 57.5 21.5t22.5 60.5q0 37 -23 55.5t-63 18.5h-43v-156z" />
<glyph unicode="&#xb4;" horiz-adv-x="503" d="M201 1116q20 32 56.5 93.5t59.5 98.5t51 78.5t48 63.5q32 35 68.5 44t66.5 -15q58 -49 -8 -131q-23 -28 -71 -68t-128 -100.5t-113 -87.5z" />
<glyph unicode="&#xb8;" horiz-adv-x="593" d="M-137 -432q0 28 16 45.5t43 17.5q25 0 39 -16.5t14 -40.5q0 -21 -14 -41q23 -10 49 -10q48 0 81.5 32t33.5 85q0 54 -38 89t-89 35q-29 0 -59 -10l-21 33l297 233l66 -6l-218 -172q70 -9 118 -55.5t48 -114.5q0 -80 -64 -135t-159 -55q-62 0 -102.5 26t-40.5 60z" />
<glyph unicode="&#xbb;" horiz-adv-x="1024" d="M33 100l311 359l-160 368l56 29l303 -379l-4 -33l-463 -383zM442 100l312 359l-160 368l55 29l303 -379l-4 -33l-463 -383z" />
<glyph unicode="&#x2c6;" horiz-adv-x="628" d="M154 1112l309 358h55l154 -358l-39 -33l-180 221l-269 -221z" />
<glyph unicode="&#x2da;" horiz-adv-x="546" d="M205 1286q0 90 64.5 161t164.5 71q77 0 125.5 -49.5t48.5 -125.5q0 -90 -64.5 -160.5t-164.5 -70.5q-77 0 -125.5 49t-48.5 125zM293 1288q0 -67 27.5 -101t68.5 -34q40 0 71.5 33.5t45.5 75.5t14 79q0 67 -27.5 101.5t-68.5 34.5q-40 0 -71.5 -34t-45.5 -76t-14 -79z " />
<glyph unicode="&#x2dc;" horiz-adv-x="694" d="M143 1110q41 126 88.5 183t116.5 57q43 0 98.5 -25t104 -49.5t74.5 -24.5q25 0 45 24t65 99l49 -12q-41 -126 -88 -183t-116 -57q-43 0 -98.5 25t-104 49.5t-74.5 24.5q-25 0 -45 -24t-63 -99z" />
<glyph unicode="&#x2000;" horiz-adv-x="759" />
<glyph unicode="&#x2001;" horiz-adv-x="1518" />
<glyph unicode="&#x2002;" horiz-adv-x="759" />
<glyph unicode="&#x2003;" horiz-adv-x="1518" />
<glyph unicode="&#x2004;" horiz-adv-x="506" />
<glyph unicode="&#x2005;" horiz-adv-x="379" />
<glyph unicode="&#x2006;" horiz-adv-x="253" />
<glyph unicode="&#x2007;" horiz-adv-x="253" />
<glyph unicode="&#x2008;" horiz-adv-x="189" />
<glyph unicode="&#x2009;" horiz-adv-x="303" />
<glyph unicode="&#x200a;" horiz-adv-x="84" />
<glyph unicode="&#x2010;" horiz-adv-x="749" d="M61 412l23 137h524l-22 -137h-525z" />
<glyph unicode="&#x2011;" horiz-adv-x="749" d="M61 412l23 137h524l-22 -137h-525z" />
<glyph unicode="&#x2012;" horiz-adv-x="749" d="M61 412l23 137h524l-22 -137h-525z" />
<glyph unicode="&#x2013;" horiz-adv-x="1118" d="M88 453l18 104h852l-20 -104h-850z" />
<glyph unicode="&#x2014;" horiz-adv-x="1630" d="M88 453l18 104h1364l-20 -104h-1362z" />
<glyph unicode="&#x2018;" horiz-adv-x="473" d="M143 952q0 120 102.5 224.5t258.5 173.5l24 -37q-110 -65 -177 -141t-81 -142l13 -8l6 2q12 4 26 4q40 0 66.5 -25.5t26.5 -70.5q0 -51 -39.5 -89t-92.5 -38q-56 0 -94.5 39.5t-38.5 107.5z" />
<glyph unicode="&#x2019;" horiz-adv-x="473" d="M115 827q110 65 177 141t81 142l-13 8l-6 -2q-12 -4 -26 -4q-40 0 -66 25t-26 71q0 51 39 89t92 38q56 0 94.5 -39.5t38.5 -107.5q0 -120 -102.5 -224t-258.5 -173z" />
<glyph unicode="&#x201a;" horiz-adv-x="473" d="M-41 -297q110 65 177 141t81 142l-12 8l-6 -2q-12 -4 -27 -4q-40 0 -66 25t-26 71q0 51 39 89t92 38q56 0 94.5 -40t38.5 -108q0 -120 -102 -224t-258 -173z" />
<glyph unicode="&#x201c;" horiz-adv-x="884" d="M143 952q0 120 102.5 224.5t258.5 173.5l24 -37q-110 -65 -177 -141t-81 -142l13 -8l6 2q12 4 26 4q40 0 66.5 -25.5t26.5 -70.5q0 -51 -39.5 -89t-92.5 -38q-56 0 -94.5 39.5t-38.5 107.5zM555 952q0 120 102.5 224.5t257.5 173.5l25 -37q-110 -65 -177 -141t-81 -142 l12 -8l6 2q12 4 27 4q40 0 66 -25t26 -71q0 -51 -39 -89t-92 -38q-56 0 -94.5 39.5t-38.5 107.5z" />
<glyph unicode="&#x201d;" horiz-adv-x="884" d="M115 827q110 65 177 141t81 142l-13 8l-6 -2q-12 -4 -26 -4q-40 0 -66 25t-26 71q0 51 39 89t92 38q56 0 94.5 -39.5t38.5 -107.5q0 -120 -102.5 -224t-258.5 -173zM526 827q110 65 177 141t81 142l-12 8l-6 -2q-12 -4 -27 -4q-40 0 -66 25t-26 71q0 51 39 89t92 38 q56 0 94.5 -39.5t38.5 -107.5q0 -120 -102 -224t-258 -173z" />
<glyph unicode="&#x201e;" horiz-adv-x="884" d="M-41 -297q110 65 177 141t81 142l-12 8l-6 -2q-12 -4 -27 -4q-40 0 -66 25t-26 71q0 51 39 89t92 38q56 0 94.5 -40t38.5 -108q0 -120 -102 -224t-258 -173zM371 -297q110 65 177 141t81 142l-13 8l-6 -2q-12 -4 -26 -4q-40 0 -66 25t-26 71q0 51 39 89t92 38 q56 0 94.5 -40t38.5 -108q0 -120 -102.5 -224t-258.5 -173z" />
<glyph unicode="&#x2022;" horiz-adv-x="1019" d="M233 653q0 114 80.5 194.5t194.5 80.5q115 0 195.5 -80.5t80.5 -194.5q0 -115 -80 -195.5t-196 -80.5q-114 0 -194.5 80.5t-80.5 195.5z" />
<glyph unicode="&#x2026;" horiz-adv-x="1378" d="M92 90q0 51 36.5 87t88.5 36q51 0 87 -36t36 -87t-36 -87t-87 -36q-52 0 -88.5 36t-36.5 87zM545 90q0 51 36.5 87t88.5 36q51 0 87 -36t36 -87t-36 -87t-87 -36q-52 0 -88.5 36t-36.5 87zM997 90q0 51 36.5 87t88.5 36q51 0 87 -36t36 -87t-36 -87t-87 -36 q-52 0 -88.5 36t-36.5 87z" />
<glyph unicode="&#x202f;" horiz-adv-x="303" />
<glyph unicode="&#x2039;" horiz-adv-x="614" d="M72 444l4 33l459 379l43 -37l-312 -356l160 -371l-55 -31z" />
<glyph unicode="&#x203a;" horiz-adv-x="614" d="M33 100l311 359l-160 368l56 29l303 -379l-4 -33l-463 -383z" />
<glyph unicode="&#x205f;" horiz-adv-x="379" />
<glyph unicode="&#x20ac;" horiz-adv-x="1204" d="M41 442l16 76h172q5 96 39 207h-170l19 76h180q91 216 270.5 351.5t390.5 135.5q113 0 169.5 -39t56.5 -96q0 -49 -30.5 -79t-80.5 -30q-58 0 -98.5 40t-73.5 118q-135 -11 -262.5 -118t-192.5 -283h551l-16 -76h-557q-24 -94 -27 -207h543l-16 -76h-523 q14 -162 101.5 -253t232.5 -91q119 0 277 107l35 -29q-163 -205 -388 -205q-192 0 -310 123.5t-122 347.5h-186z" />
<glyph unicode="&#x2122;" horiz-adv-x="1679" d="M193 1114l26 191h547l27 -191l-21 -4l-65 84q-30 40 -47.5 53t-47.5 13h-59v-488l94 -29v-26h-303v26l94 29v488h-65q-30 0 -46.5 -13t-47.5 -53l-66 -84zM864 717v26l78 35v467l-78 31v29h254l35 -103l129 -330h12l125 336l31 97h258v-29l-90 -27v-477l90 -29v-26h-281 v26l74 29v461h-18l-199 -516h-53l-205 516h-22v-455l69 -35v-26h-209z" />
<glyph unicode="&#x25fc;" horiz-adv-x="952" d="M0 0v952h952v-952h-952z" />
</font>
</defs>
</svg>
