<?xml version="1.0" standalone="no"?>
<!DOCTYPE svg PUBLIC "-//W3C//DTD SVG 1.1//EN" "http://www.w3.org/Graphics/SVG/1.1/DTD/svg11.dtd" >
<svg xmlns="http://www.w3.org/2000/svg" xmlns:xlink="http://www.w3.org/1999/xlink" version="1.1">
<metadata></metadata>
<defs>
<font id="zigguratblack" horiz-adv-x="565" >
<font-face units-per-em="2048" ascent="1638" descent="-410" />
<missing-glyph horiz-adv-x="491" />
<glyph horiz-adv-x="0" />
<glyph horiz-adv-x="682" />
<glyph unicode=" "  horiz-adv-x="491" />
<glyph unicode="&#x09;" horiz-adv-x="491" />
<glyph unicode="&#xa0;" horiz-adv-x="491" />
<glyph unicode="!" horiz-adv-x="630" d="M61 1161v383h508v-383l-147 -696h-213zM104 0v362h422v-362h-422z" />
<glyph unicode="&#x22;" horiz-adv-x="1198" d="M55 926l125 618h443l-291 -618h-277zM555 926l145 618h445l-314 -618h-276z" />
<glyph unicode="#" horiz-adv-x="1566" d="M14 635l88 235h211l88 240h-215l90 246h216l69 188h287l-70 -188h213l70 188h287l-70 -188h244l-92 -246h-242l-88 -240h250l-93 -235h-243l-66 -180h-286l65 180h-213l-65 -180h-287l65 180h-213zM600 870h213l88 240h-213z" />
<glyph unicode="$" horiz-adv-x="1421" d="M66 352q0 99 63 158t168 59q80 0 136 -38t56 -87q0 -31 -17 -63.5t-17 -38.5q0 -100 149 -100q174 0 174 118q0 40 -23.5 77t-63 67.5t-91 60.5t-108.5 61.5t-114 65.5t-108.5 77t-91 91t-63 111.5t-23.5 136.5q0 183 131 305.5t389 159.5v176h265v-176 q90 -12 165.5 -42.5t125.5 -69t85 -84t50.5 -88.5t15.5 -81q0 -89 -56.5 -141.5t-150.5 -52.5q-72 0 -123 34t-51 76q0 28 15.5 58t15.5 35q0 86 -144 86q-81 0 -117 -28t-36 -71q0 -46 38 -89t98.5 -80.5t133.5 -78.5t146 -91.5t133.5 -109t98.5 -141.5t38 -180 q0 -179 -147 -303t-414 -162v-176h-265v174q-223 27 -344.5 133.5t-121.5 251.5z" />
<glyph unicode="%" horiz-adv-x="1908" d="M86 1139q0 199 104 321.5t281 122.5t281 -122.5t104 -321.5t-104.5 -322t-280.5 -123t-280.5 123t-104.5 322zM256 0l1147 1544h250l-1147 -1544h-250zM422 973q0 -70 49 -70t49 70v332q0 67 -49 67t-49 -67v-332zM1053 406q0 199 104 321.5t281 122.5t281 -122.5 t104 -321.5t-104.5 -322t-280.5 -123t-280.5 123t-104.5 322zM1389 240q0 -70 49 -70t49 70v329q0 70 -49 70t-49 -70v-329z" />
<glyph unicode="&#x26;" horiz-adv-x="1972" d="M43 438q0 178 110 320t318 194q-22 80 -22 174q0 210 132.5 333.5t352.5 123.5q90 0 165 -30t123 -80t74.5 -115t26.5 -137q0 -123 -83 -214t-236 -145q51 -79 135.5 -181t152.5 -165q54 57 54 109q0 41 -19.5 74.5t-39 63t-19.5 62.5q0 72 49 124t123 52q101 0 159 -69 t58 -187q0 -204 -178 -348q66 -32 123 -32q65 0 98 50t33 167h180q49 -67 49 -201q0 -189 -124 -304.5t-359 -115.5q-201 0 -394 145q-101 -75 -200.5 -110t-229.5 -35q-290 0 -451 126.5t-161 350.5zM516 530q0 -93 58.5 -156t148.5 -63q55 0 82 21q-144 169 -225 332 q-27 -21 -45.5 -57.5t-18.5 -76.5zM883 1182q0 -71 28 -131q109 44 109 131q0 34 -16.5 56t-51.5 22q-33 0 -51 -22t-18 -56z" />
<glyph unicode="'" horiz-adv-x="681" d="M55 926l125 618h443l-291 -618h-277z" />
<glyph unicode="(" horiz-adv-x="1011" d="M59 557q0 217 92 419.5t269.5 363.5t413.5 243l122 -119q-335 -277 -335 -907q0 -627 335 -907l-122 -119q-236 82 -413.5 243t-269.5 363.5t-92 419.5z" />
<glyph unicode=")" horiz-adv-x="1011" d="M29 -350q336 280 336 907q0 629 -336 907l123 119q236 -82 413.5 -243t269 -363.5t91.5 -419.5t-91.5 -419.5t-269 -363.5t-413.5 -243z" />
<glyph unicode="*" horiz-adv-x="888" d="M41 1024l111 80l149 47l-149 45l-111 82l160 219l110 -82l90 -127l-2 156l41 131l260 -84l-43 -131l-94 -123l148 49h137v-272h-137l-148 51l94 -125l43 -131l-260 -84l-41 131l2 156l-90 -127l-110 -80z" />
<glyph unicode="+" horiz-adv-x="1167" d="M72 625v288h356v349h309v-349h359v-288h-359v-355h-309v355h-356z" />
<glyph unicode="," d="M61 0v373h443v-283q0 -365 -443 -438v155q176 23 205 193h-205z" />
<glyph unicode="-" horiz-adv-x="796" d="M72 459v309h653v-309h-653z" />
<glyph unicode="." d="M61 0v373h443v-373h-443z" />
<glyph unicode="/" horiz-adv-x="1067" d="M49 0l520 1544h449l-520 -1544h-449z" />
<glyph unicode="0" horiz-adv-x="1619" d="M41 772q0 147 42 277t115.5 226.5t171 166.5t210 105.5t229.5 35.5q148 0 286 -57t246 -158.5t173 -257t65 -338.5t-65 -338.5t-173 -257t-246 -158.5t-286 -57q-117 0 -229.5 35.5t-210 105.5t-171 166.5t-115.5 226.5t-42 277zM662 573q0 -104 36 -166.5t111 -62.5 q76 0 111.5 62t35.5 167v398q0 105 -35.5 167t-111.5 62q-75 0 -111 -62.5t-36 -166.5v-398z" />
<glyph unicode="1" horiz-adv-x="1103" d="M61 0v395h209v617h-209v364h189q110 0 221.5 50.5t196.5 127.5h219v-1159h207v-395h-1033z" />
<glyph unicode="2" horiz-adv-x="1599" d="M111 0v246l475 438q264 243 264 442q0 61 -40.5 103.5t-107.5 42.5q-59 0 -96 -38t-37 -93q0 -26 36 -87.5t36 -109.5q0 -92 -61.5 -149.5t-169.5 -57.5q-125 0 -205 97t-80 247q0 102 48.5 193.5t134.5 160t213.5 108.5t277.5 40q147 0 273.5 -38t213 -102t135.5 -151 t49 -184q0 -48 -8 -93.5t-27 -88t-39 -79t-55 -75.5t-63.5 -68.5t-76.5 -66.5t-81.5 -62t-91.5 -61.5t-93.5 -58.5t-98.5 -60h297v137h354v-532h-1376z" />
<glyph unicode="3" horiz-adv-x="1576" d="M59 438q0 133 65.5 212t186.5 79q103 0 156 -51t53 -137q0 -26 -12 -59t-12 -56q0 -46 54 -89.5t124 -43.5q94 0 145 62.5t51 168.5q0 75 -53.5 132t-136.5 57h-78v182h78q84 0 126 41t42 115q0 91 -45.5 145.5t-128.5 54.5q-70 0 -109 -31t-39 -75q0 -26 7.5 -53 t7.5 -66q0 -70 -50 -118t-149 -48q-112 0 -170.5 78t-58.5 195q0 86 46 166.5t128 143.5t208 101.5t275 38.5q200 0 360 -58t252.5 -166.5t92.5 -250.5q0 -91 -76 -183t-197 -130q131 -27 214 -130t83 -229q0 -141 -99 -250.5t-264 -167t-366 -57.5q-148 0 -283 42.5 t-227 110.5t-146.5 153.5t-54.5 170.5z" />
<glyph unicode="4" horiz-adv-x="1589" d="M18 479v297l799 768h490v-768h229v-297h-229v-84h168v-395h-951v395h168v84h-674zM477 776h215v215z" />
<glyph unicode="5" horiz-adv-x="1488" d="M47 391q0 113 73.5 194t198.5 81q87 0 135 -50t48 -124q0 -27 -10.5 -60.5t-10.5 -52.5q0 -46 27.5 -71t95.5 -25q64 0 111 42t68.5 104.5t21.5 135.5q0 98 -39.5 158.5t-116.5 60.5q-109 0 -135 -79l-393 51l145 788h1047l-21 -397h-694l-39 -209q35 55 137.5 92 t235.5 37q95 0 177 -28t140 -75.5t99.5 -110t61.5 -131.5t20 -140q0 -130 -46.5 -242.5t-134 -197t-222.5 -133t-302 -48.5q-153 0 -283 37t-215 98t-132.5 138t-47.5 157z" />
<glyph unicode="6" horiz-adv-x="1486" d="M45 772q0 183 65 338.5t173 257t246 158.5t286 57q122 0 233 -35t186.5 -91t120 -126.5t44.5 -140.5q0 -92 -57.5 -152.5t-153.5 -60.5q-82 0 -135.5 43.5t-53.5 118.5q0 11 3.5 27t3.5 28q0 34 -27.5 56t-85.5 22q-89 0 -155 -89.5t-66 -244.5v-109q38 48 114 76.5 t177 28.5q113 0 212 -38t166 -99.5t105.5 -140.5t38.5 -160q0 -110 -50 -208.5t-137 -170.5t-213 -114t-270 -42q-148 0 -286 57t-246 158.5t-173 257t-65 338.5zM680 498q0 -63 10 -112t36.5 -84.5t68.5 -35.5q41 0 67.5 35t36.5 85t10 112q0 63 -10 113t-36.5 85t-67.5 35 q-42 0 -68.5 -35t-36.5 -84.5t-10 -113.5z" />
<glyph unicode="7" horiz-adv-x="1415" d="M94 907v637h1315v-330q-380 -431 -532 -1214h-678q134 325 327 654t346 493h-380v-240h-398z" />
<glyph unicode="8" horiz-adv-x="1480" d="M41 432q0 120 83 232t206 174q-85 51 -132.5 130.5t-47.5 172.5q0 190 170 316t450 126q276 0 424.5 -121t148.5 -315q0 -78 -47.5 -163t-119.5 -130q131 -68 203.5 -166.5t72.5 -220.5q0 -222 -187 -364t-517 -142q-342 0 -524.5 120.5t-182.5 350.5zM453 440 q0 -76 58 -123t140 -47q83 0 142 47t59 123q0 68 -52.5 129t-148.5 105q-96 -44 -147 -105t-51 -129zM756 1169q0 -88 118 -143q119 55 119 143q0 46 -35 74.5t-84 28.5t-83.5 -28.5t-34.5 -74.5z" />
<glyph unicode="9" horiz-adv-x="1542" d="M80 1049q0 110 49.5 208.5t136.5 170t213 113.5t271 42q117 0 229.5 -35.5t210 -105.5t171 -166.5t115.5 -226.5t42 -277q0 -148 -41 -277.5t-115.5 -226.5t-175 -166.5t-223 -105t-256.5 -35.5q-147 0 -265 32.5t-190.5 88t-111 125t-38.5 147.5q0 90 69 157t165 67 q98 0 154.5 -55t56.5 -124q0 -15 -5 -34t-5 -31q0 -29 34 -46.5t80 -17.5q90 0 166 91.5t76 242.5v111q-38 -48 -114 -76.5t-177 -28.5q-113 0 -212 38t-166 99.5t-105.5 140.5t-38.5 161zM655 1044q0 -63 10 -112t36.5 -84t68.5 -35t68.5 35t36.5 84t10 112q0 64 -10 113.5 t-36.5 85t-68.5 35.5t-68.5 -35.5t-36.5 -85t-10 -113.5z" />
<glyph unicode=":" d="M61 0v373h443v-373h-443zM61 715v372h443v-372h-443z" />
<glyph unicode=";" d="M61 0v373h443v-283q0 -365 -443 -438v155q176 23 205 193h-205zM61 715v372h443v-372h-443z" />
<glyph unicode="&#x3c;" horiz-adv-x="1067" d="M84 725v92l846 533v-344l-383 -236l383 -235v-345z" />
<glyph unicode="=" horiz-adv-x="1167" d="M72 348v309h1024v-309h-1024zM72 879v309h1024v-309h-1024z" />
<glyph unicode="&#x3e;" horiz-adv-x="1067" d="M139 190v345l383 235l-383 236v344l846 -533v-92z" />
<glyph unicode="?" horiz-adv-x="1257" d="M47 1171q0 82 34 154t102 130.5t183 93t263 34.5q136 0 249 -37.5t186.5 -102.5t114 -151t40.5 -184q0 -81 -31 -147t-80.5 -109t-109.5 -78.5t-120 -63.5t-109.5 -54.5t-80.5 -60t-31 -73.5q0 -24 17 -57h-266q-39 32 -60.5 81t-21.5 103q0 50 28 98t69.5 83.5t90.5 76 t90.5 76t69.5 83t28 97.5q0 109 -133 109q-56 0 -86 -21.5t-30 -58.5q0 -20 25.5 -54t25.5 -71q0 -71 -54 -114.5t-153 -43.5q-114 0 -182 73t-68 189zM334 0v360h424v-360h-424z" />
<glyph unicode="@" horiz-adv-x="1773" d="M80 772q0 169 62 318.5t170.5 258t264 171.5t334.5 63q158 0 291.5 -44t222 -115t151 -163t90.5 -185.5t28 -184.5q0 -101 -35.5 -201.5t-98 -182.5t-158 -133.5t-206.5 -51.5q-141 0 -223.5 59.5t-79.5 153.5q-48 -82 -118.5 -136.5t-139.5 -54.5q-97 0 -158 65t-61 166 q0 97 33.5 205.5t91 203t147 156.5t189.5 62q141 0 159 -123l37 101h289l-199 -562q-31 -75 -8.5 -126.5t102.5 -51.5q53 0 109 35t101.5 94t74.5 144.5t29 177.5q0 168 -86 299t-236 201.5t-338 70.5q-155 0 -287.5 -53.5t-224.5 -145.5t-144 -219t-52 -272t52 -272 t144 -220t225 -146.5t287 -53.5q276 0 471 164l80 -90q-225 -193 -551 -193q-179 0 -334.5 63t-264 171.5t-170.5 258t-62 318.5zM707 578q0 -58 59 -58q21 0 60 40.5t59 96.5l116 330q-1 21 -20 38t-37 17q-45 0 -103 -97.5t-96 -207.5t-38 -159z" />
<glyph unicode="A" horiz-adv-x="1763" d="M0 0v395h135l418 1149h647l418 -1149h156v-395h-938v395h125l-35 119h-287l-33 -119h125v-395h-731zM707 737h153l-78 262z" />
<glyph unicode="B" horiz-adv-x="1804" d="M41 0v395h168v752h-168v397h1133q251 0 398.5 -109t147.5 -288q0 -71 -18.5 -127t-53.5 -97t-76 -69.5t-97 -54.5q128 -29 214.5 -127.5t86.5 -231.5q0 -58 -19 -117.5t-61.5 -118t-103.5 -103.5t-153 -73t-202 -28h-1196zM823 395h127q76 0 112 35t36 94t-36 93t-112 34 h-127v-256zM823 891h127q76 0 112 35t36 94q0 58 -36 92.5t-112 34.5h-127v-256z" />
<glyph unicode="C" horiz-adv-x="1675" d="M31 772q0 115 25.5 219t68.5 184t100 148t121 115t130.5 80.5t128.5 49t116 15.5q124 0 225.5 -43.5t157.5 -109.5v114h479v-721h-479v58q0 146 -50 232.5t-155 86.5t-155 -86.5t-50 -232.5v-217q0 -146 50 -233t155 -87t155 87t50 233v55h479q0 -178 -55.5 -322.5 t-154 -239t-234.5 -145.5t-297 -51q-134 0 -256.5 35.5t-223 105t-175 166.5t-115.5 226.5t-41 277.5z" />
<glyph unicode="D" horiz-adv-x="1812" d="M41 0v395h168v752h-168v397h930q134 0 256.5 -34t223 -100.5t175 -158.5t115.5 -215t41 -264t-41 -264t-115.5 -215t-175 -158.5t-223 -100.5t-256.5 -34h-930zM823 395h148q76 0 111.5 55.5t35.5 147.5v348q0 92 -35.5 146.5t-111.5 54.5h-148v-752z" />
<glyph unicode="E" horiz-adv-x="1761" d="M41 0v395h168v752h-168v397h1649v-721h-480v324h-387v-232h283v-286h-283v-234h387v324h480v-719h-1649z" />
<glyph unicode="F" horiz-adv-x="1710" d="M41 0v395h168v752h-168v397h1649v-721h-480v324h-387v-254h283v-285h-283v-213h168v-395h-950z" />
<glyph unicode="G" horiz-adv-x="1794" d="M31 772q0 136 34.5 256t92.5 206t131 154.5t154 110t157 63t143 21.5q125 0 236 -44t168 -109v114h479v-663h-479q0 141 -59.5 230t-165.5 89q-103 0 -164.5 -93t-61.5 -267v-135q0 -174 61.5 -267.5t164.5 -93.5q85 0 142 56.5t75 152.5h-170v223h835v-223h-178v-553 h-438l-41 115q-56 -66 -167 -110t-237 -44q-57 0 -121.5 15t-133.5 47t-134.5 78.5t-124 114t-102.5 147.5t-70 185.5t-26 223.5z" />
<glyph unicode="H" horiz-adv-x="2000" d="M41 0v395h166v752h-166v397h907v-397h-125v-264h355v264h-125v397h907v-397h-168v-752h168v-395h-907v395h125v264h-355v-264h125v-395h-907z" />
<glyph unicode="I" horiz-adv-x="1073" d="M61 0v395h168v752h-168v397h951v-397h-168v-752h168v-395h-951z" />
<glyph unicode="J" horiz-adv-x="1456" d="M31 432q0 129 75 210t201 81q103 0 174.5 -63.5t71.5 -147.5q0 -41 -11.5 -67.5t-23.5 -42t-12 -29.5q0 -70 65 -70q48 0 70.5 38.5t22.5 133.5v672h-168v397h950v-397h-168v-631q0 -129 -55.5 -235.5t-149.5 -175.5t-216 -106.5t-257 -37.5q-111 0 -213.5 32.5 t-181.5 91t-126.5 149t-47.5 198.5z" />
<glyph unicode="K" horiz-adv-x="2023" d="M41 0v395h168v752h-168v397h928v-397h-146v-326l449 326h-199v397h815v-397h-213l-264 -182l444 -570h158v-395h-960v395h104l-205 260l-129 -88v-172h125v-395h-907z" />
<glyph unicode="L" horiz-adv-x="1636" d="M41 0v395h168v752h-168v397h950v-397h-168v-752h303v324h480v-719h-1565z" />
<glyph unicode="M" horiz-adv-x="2543" d="M41 0v395h168v752h-168v397h1032l195 -502l192 502h1043v-397h-166v-752h166v-395h-949v395h166v590l-413 -985h-263l-409 985v-590h168v-395h-762z" />
<glyph unicode="N" horiz-adv-x="1916" d="M41 0v395h166v752h-166v397h739l523 -751v354h-166v397h759v-397h-165v-1147h-574l-522 752v-357h168v-395h-762z" />
<glyph unicode="O" horiz-adv-x="1683" d="M31 772q0 148 41 277.5t115.5 226.5t175 166.5t223 105t256.5 35.5t256.5 -35.5t223 -105t175 -166.5t115.5 -226.5t41 -277.5t-41 -277.5t-115.5 -226.5t-175 -166.5t-223 -105t-256.5 -35.5t-256.5 35.5t-223 105t-175 166.5t-115.5 226.5t-41 277.5zM694 573 q0 -105 36 -167t112 -62q75 0 111 62.5t36 166.5v398q0 104 -36 166.5t-111 62.5q-76 0 -112 -62t-36 -167v-398z" />
<glyph unicode="P" horiz-adv-x="1740" d="M41 0v395h166v752h-166v397h1133q248 0 396 -132t148 -335q0 -204 -147.5 -335.5t-396.5 -131.5h-351v-215h166v-395h-948zM823 891h127q74 0 110 35t36 94q0 58 -36 92.5t-110 34.5h-127v-256z" />
<glyph unicode="Q" horiz-adv-x="1683" d="M31 772q0 185 64 339t174 256.5t258.5 159t316.5 56.5q133 0 255 -35.5t223 -105t175.5 -166.5t116 -226.5t41.5 -277.5q0 -197 -70 -355t-196 -265q1 0 1 -30l-1 -30q0 -26 19 -44.5t44 -18.5q26 0 45 18.5t19 44.5v53h172v-108q0 -163 -113 -261t-283 -98 q-141 0 -248.5 77t-144.5 206h-55q-168 0 -316.5 56.5t-258.5 159t-174 256.5t-64 339zM696 608q65 49 148 49q80 0 145 -49v363q0 105 -35.5 167t-109.5 62q-76 0 -112 -62t-36 -167v-363zM707 461q33 -117 137 -117q13 0 33 4q-12 58 -38 95.5t-65 37.5q-34 0 -67 -20z " />
<glyph unicode="R" horiz-adv-x="1929" d="M41 0v395h168v752h-168v397h1135q250 0 397 -109t147 -288q0 -255 -319 -383q104 -30 172.5 -131t68.5 -240q0 -26 18.5 -43.5t45.5 -17.5q26 0 43.5 17.5t17.5 43.5v76h172v-172q0 -107 -66 -185t-170.5 -114.5t-232.5 -36.5q-222 0 -330 105t-108 288q0 91 -14 152 t-41.5 91.5t-58 42t-72.5 11.5h-23v-256h125v-395h-907zM823 891h127q76 0 112 35t36 94q0 58 -36 92.5t-112 34.5h-127v-256z" />
<glyph unicode="S" horiz-adv-x="1552" d="M57 0v559h459q0 -111 69.5 -169t180.5 -58q58 0 93.5 33t35.5 84q0 29 -28.5 50.5t-77 36t-111.5 27.5t-132.5 31t-139 41t-132.5 62t-111.5 89.5t-77 127.5t-28.5 173q0 99 50.5 190.5t135.5 158.5t203.5 107t247.5 40q115 0 208 -44.5t147 -119.5l2 125h424v-538h-418 q0 111 -67 169t-177 58q-58 0 -93.5 -33t-35.5 -84q0 -29 28.5 -51t77 -37.5t111.5 -30.5t132.5 -34.5t139 -44.5t132.5 -65.5t111.5 -92t77 -129.5t28.5 -174q0 -100 -44 -190.5t-121.5 -158t-189.5 -107.5t-241 -40q-120 0 -233 44.5t-169 119.5v-125h-467z" />
<glyph unicode="T" horiz-adv-x="1767" d="M20 823v721h1727v-721h-422v324h-135v-752h166v-395h-948v395h165v752h-135v-324h-418z" />
<glyph unicode="U" horiz-adv-x="1814" d="M20 1147v397h930v-397h-147v-610q0 -76 50 -124t138 -48t138.5 48t50.5 124v610h-125v397h739v-397h-145v-631q0 -100 -37.5 -188.5t-105 -155t-157.5 -114.5t-197.5 -72.5t-223.5 -24.5q-145 0 -278.5 39t-236 109.5t-164 176t-61.5 230.5v631h-168z" />
<glyph unicode="V" horiz-adv-x="1804" d="M10 1147v397h940v-397h-125l176 -561l179 561h-125v397h729v-397h-135l-459 -1147h-563l-459 1147h-158z" />
<glyph unicode="W" horiz-adv-x="2596" d="M10 1147v397h918v-397h-125l190 -500l160 381l-43 119h-78v397h793v-397h-125l178 -467l193 467h-142v397h647v-397h-137l-500 -1147h-407l-221 602l-269 -602h-428l-448 1147h-156z" />
<glyph unicode="X" horiz-adv-x="1855" d="M20 0v395h156l432 338l-442 414h-146v397h992v-397h-127l170 -158l217 158h-158v397h721v-397h-156l-432 -338l443 -414h145v-395h-991v395h125l-168 160l-217 -160h155v-395h-719z" />
<glyph unicode="Y" horiz-adv-x="1835" d="M25 1147v397h940v-397h-125l176 -258l178 258h-125v397h729v-397h-135l-436 -535v-217h168v-395h-951v395h168v223l-430 529h-157z" />
<glyph unicode="Z" horiz-adv-x="1755" d="M33 0v168l835 999h-366v-297h-416v674h1636v-168l-792 -1001h344v299h418v-674h-1659z" />
<glyph unicode="[" horiz-adv-x="806" d="M37 -430v1974h743v-397h-278v-1180h278v-397h-743z" />
<glyph unicode="\" horiz-adv-x="1067" d="M47 1544h449l520 -1544h-449z" />
<glyph unicode="]" horiz-adv-x="806" d="M35 -33h278v1180h-278v397h743v-1974h-743v397z" />
<glyph unicode="^" horiz-adv-x="831" d="M37 1192l188 352h381l189 -352h-256l-123 184l-123 -184h-256z" />
<glyph unicode="_" horiz-adv-x="1536" d="M0 0h1536v-268h-1536v268z" />
<glyph unicode="`" horiz-adv-x="649" d="M29 1544h424l165 -352h-256z" />
<glyph unicode="a" horiz-adv-x="1357" d="M14 262q0 317 672 334v172q0 48 -12 70t-51 22q-62 0 -62 -47q0 -11 5 -30.5t5 -32.5q0 -56 -57 -92.5t-166 -36.5q-113 0 -175 52.5t-62 145.5q0 54 32.5 105.5t94 94t163.5 68t230 25.5q256 0 403.5 -104t147.5 -254v-486q0 -47 39 -47q41 0 41 47v76h172v-35 q0 -150 -97 -241t-268 -91q-108 0 -203 43.5t-133 114.5q-40 -66 -135.5 -112t-196.5 -46q-169 0 -278 75t-109 210zM520 317q0 -37 22 -57t60 -20q35 0 59.5 23.5t24.5 55.5v130q-81 -6 -123.5 -42t-42.5 -90z" />
<glyph unicode="b" horiz-adv-x="1431" d="M-10 1235v309h653v-583q58 71 140 110t169 39q200 0 319.5 -152.5t119.5 -414.5q0 -261 -120 -413.5t-319 -152.5q-87 0 -169 39.5t-140 110.5l-125 -127h-391v1235h-137zM643 408q0 -65 24.5 -103.5t77.5 -38.5q51 0 76 39t25 103v272q0 64 -24.5 101.5t-76.5 37.5 q-102 0 -102 -139v-272z" />
<glyph unicode="c" horiz-adv-x="1191" d="M41 543q0 103 32.5 194t89.5 158t133.5 116t166 74t184.5 25q109 0 205 -37t157.5 -93.5t96.5 -121.5t35 -125q0 -110 -57.5 -169.5t-153.5 -59.5q-70 0 -110 43t-40 94q0 37 24.5 73.5t24.5 57.5q0 29 -25.5 54.5t-72.5 25.5q-158 0 -158 -309q0 -310 158 -310 q83 0 149 49.5t93 125.5h205q-38 -200 -181.5 -315.5t-349.5 -115.5q-119 0 -228.5 40t-193.5 111.5t-134 179.5t-50 235z" />
<glyph unicode="d" horiz-adv-x="1431" d="M41 543q0 262 119.5 414.5t318.5 152.5q89 0 171 -39t138 -110v274h-135v309h654v-1235h135v-309h-654v127q-56 -71 -138 -110.5t-171 -39.5q-199 0 -318.5 152.5t-119.5 413.5zM586 408q0 -65 24.5 -103.5t77.5 -38.5q51 0 75.5 39t24.5 103v272q0 139 -100 139 q-102 0 -102 -139v-272z" />
<glyph unicode="e" horiz-adv-x="1329" d="M31 543q0 129 49.5 236.5t135.5 179.5t201.5 111.5t246.5 39.5q177 0 320 -67.5t228.5 -198t85.5 -301.5v-41h-723v-96q0 -160 146 -160q83 0 149 48.5t93 125.5h323q-44 -204 -216 -323.5t-406 -119.5q-176 0 -319 67.5t-228.5 198t-85.5 300.5zM575 680h179v37 q0 125 -90 125q-45 0 -67 -34t-22 -91v-37z" />
<glyph unicode="f" horiz-adv-x="958" d="M43 778v309h158q0 233 142.5 366.5t414.5 133.5q127 0 226 -24.5t155 -64.5t84 -85.5t28 -93.5q0 -80 -43.5 -130t-134.5 -50q-58 0 -96 24.5t-55.5 59.5t-32.5 69.5t-39 59t-62 24.5q-36 0 -53.5 -21.5t-17.5 -56.5v-211h180v-309h-180v-469h157v-309h-811v309h138v469 h-158z" />
<glyph unicode="g" horiz-adv-x="1280" d="M16 184q0 100 56 168t166 123q-55 41 -85 118t-30 150q0 155 123 261t352 106q253 0 379 -113q38 51 94 82t117 31q77 0 124.5 -41.5t47.5 -110.5q0 -52 -33 -91.5t-86 -39.5q-31 0 -51.5 11.5t-29.5 28t-16 33.5t-17 28.5t-27 11.5q-32 0 -53 -35q12 -26 20 -74.5 t8 -87.5q0 -156 -123 -261t-354 -105q-132 0 -229 33q-37 -26 -37 -60q0 -22 22.5 -41.5t57.5 -19.5h450q200 0 296.5 -78t96.5 -234q0 -80 -35 -157.5t-100.5 -141.5t-171 -103.5t-233.5 -39.5h-391q-82 0 -142.5 19.5t-92.5 52.5t-47 69t-15 76q0 67 39 120.5t96 76.5 q-62 30 -104 96t-42 139zM293 -174q0 -22 18.5 -38.5t44.5 -16.5h467q35 0 51.5 19t16.5 42q0 17 -11 30t-36 13h-514q-37 -6 -37 -49zM549 618q0 -59 49 -59q51 0 51 59v250q0 60 -51 60q-49 0 -49 -60v-250z" />
<glyph unicode="h" horiz-adv-x="1519" d="M20 0v309h136v926h-136v309h654v-690q58 108 164 182t239 74q136 0 226 -102t90 -256v-443h137v-309h-715v309h62v305q0 85 -12.5 133t-49.5 48q-41 0 -78 -52.5t-63 -152.5v-281h59v-309h-713z" />
<glyph unicode="i" horiz-adv-x="831" d="M41 0v309h137v469h-137v309h653v-778h137v-309h-790zM293 1169v267h401v-267h-401z" />
<glyph unicode="j" horiz-adv-x="800" d="M-326 -223q0 77 50 126.5t139 49.5q47 0 80.5 -17.5t49 -43.5t28 -56t20.5 -56t23.5 -43.5t39.5 -17.5q39 0 55.5 21t16.5 74v964h-135v309h653v-1021q0 -111 -34 -205.5t-100.5 -168t-175.5 -115.5t-249 -42q-131 0 -225 20t-143.5 56t-71 76.5t-21.5 89.5zM291 1171 v267h403v-267h-403z" />
<glyph unicode="k" horiz-adv-x="1585" d="M20 0v309h138v926h-138v309h656v-977l278 211h-196v309h715v-309h-267l-143 -102l407 -367h125v-309h-735v309h105l-189 160l-100 -74v-86h102v-309h-758z" />
<glyph unicode="l" horiz-adv-x="811" d="M20 0v309h138v926h-138v309h654v-1235h137v-309h-791z" />
<glyph unicode="m" horiz-adv-x="2193" d="M41 0v309h135v469h-135v309h631v-233q59 110 159.5 183t233.5 73q115 0 194.5 -69.5t102.5 -188.5q59 111 161 184.5t240 73.5q135 0 220 -101.5t85 -256.5v-443h136v-309h-691v309h60v305q0 42 -2 69t-7.5 55.5t-19 42.5t-33.5 14q-41 0 -78 -52.5t-63 -152.5v-281h60 v-309h-615v309h59v305q0 88 -11.5 134.5t-49.5 46.5q-40 0 -78 -53t-63 -152v-281h61v-309h-692z" />
<glyph unicode="n" horiz-adv-x="1540" d="M41 0v309h135v469h-135v309h653v-233q58 108 164 182t240 74q136 0 225.5 -102t89.5 -256v-443h137v-309h-714v309h61v305q0 86 -12 133.5t-49 47.5q-41 0 -78.5 -52.5t-63.5 -152.5v-281h60v-309h-713z" />
<glyph unicode="o" horiz-adv-x="1331" d="M31 543q0 129 50 236.5t136 179.5t202 111.5t247 39.5t246.5 -39.5t201.5 -111.5t136 -179.5t50 -236.5q0 -170 -86 -300.5t-229 -198t-319 -67.5t-319.5 67.5t-229.5 198t-86 300.5zM575 369q0 -55 23 -89t68 -34t66.5 33.5t21.5 89.5v348q0 125 -88 125q-45 0 -68 -34 t-23 -91v-348z" />
<glyph unicode="p" horiz-adv-x="1462" d="M20 -133h138v911h-138v309h654v-126q58 71 140 110t169 39q199 0 318.5 -152t119.5 -413q0 -262 -119.5 -415t-318.5 -153q-87 0 -169 39.5t-140 110.5v-260h137v-309h-791v309zM674 408q0 -140 102 -140q52 0 76.5 38t24.5 102v272q0 64 -24.5 101.5t-76.5 37.5 q-102 0 -102 -139v-272z" />
<glyph unicode="q" horiz-adv-x="1413" d="M41 543q0 262 119.5 414.5t318.5 152.5q89 0 171 -39t138 -110l127 126h392v-1220h135v-309h-789v309h135v258q-57 -70 -139 -109t-170 -39q-199 0 -318.5 152.5t-119.5 413.5zM586 408q0 -65 24.5 -103.5t77.5 -38.5q51 0 75.5 39t24.5 103v272q0 139 -100 139 q-102 0 -102 -139v-272z" />
<glyph unicode="r" horiz-adv-x="1253" d="M41 0v309h135v469h-135v309h631v-215q38 99 122.5 168.5t174.5 69.5q134 0 214.5 -70t80.5 -178q0 -109 -59.5 -168t-151.5 -59q-43 0 -76.5 16.5t-53 40t-35.5 47t-33 40t-36 16.5q-39 0 -68.5 -47.5t-56.5 -151.5v-287h156v-309h-809z" />
<glyph unicode="s" horiz-adv-x="1243" d="M76 0v399h219q56 -80 156 -126t221 -46q88 0 88 60q0 20 -29.5 35t-77.5 23.5t-109.5 21.5t-125.5 27.5t-125.5 43.5t-109.5 66.5t-77.5 99.5t-29.5 141q0 153 140.5 256t352.5 103q89 0 167.5 -29t94.5 -61l3 73h305v-366h-244q-29 66 -108.5 103.5t-184.5 37.5 q-84 0 -84 -53q0 -23 23.5 -39t63.5 -25.5t92 -18t109 -20t114 -27t109 -43t92 -65t63.5 -96.5t23.5 -133q0 -163 -134 -267t-357 -104q-98 0 -191 26t-145 75v-72h-305z" />
<glyph unicode="t" horiz-adv-x="1011" d="M-10 778v309q166 0 279 75.5t171 209.5h244v-285h254v-309h-254v-487q0 -23 13.5 -39t33.5 -16q22 0 35.5 15.5t13.5 39.5v137h199v-61q0 -187 -109 -291.5t-286 -104.5q-179 0 -287.5 104.5t-108.5 291.5v411h-198z" />
<glyph unicode="u" horiz-adv-x="1499" d="M-10 778v309h653v-614q0 -42 2 -69.5t7.5 -55.5t19 -41.5t33.5 -13.5q40 0 78 53t63 152v280h-121v309h637v-778h137v-309h-653v233q-58 -108 -164 -182t-240 -74q-136 0 -226.5 102.5t-90.5 256.5v442h-135z" />
<glyph unicode="v" horiz-adv-x="1462" d="M10 778v309h811v-309h-135l166 -446l188 446h-137v309h570v-309h-125l-349 -778h-550l-314 778h-125z" />
<glyph unicode="w" horiz-adv-x="2041" d="M10 778v309h713v-309h-70l115 -309l131 309h-92v309h659v-309h-94l117 -309l129 309h-70v309h504v-309h-127l-346 -778h-377l-168 418l-186 -418h-397l-316 778h-125z" />
<glyph unicode="x" horiz-adv-x="1458" d="M31 0v309h125l266 240l-266 229h-125v309h811v-309h-82l131 -112l115 112h-80v309h501v-309h-124l-267 -239l267 -230h124v-309h-811v309h82l-129 113l-116 -113h82v-309h-504z" />
<glyph unicode="y" horiz-adv-x="1361" d="M-12 -223q0 80 46 127t132 47q49 0 84.5 -21.5t55 -51.5t36 -60.5t37.5 -52t49 -21.5q41 0 68.5 34.5t27.5 98.5q0 107 -75 252l-314 649h-125v309h750v-309h-107l142 -360l155 360h-108v309h528v-309h-115l-376 -796q-55 -121 -105.5 -200t-114 -137t-141.5 -84 t-180 -26q-93 0 -163 20.5t-109.5 55.5t-58.5 76.5t-19 89.5z" />
<glyph unicode="z" horiz-adv-x="1288" d="M20 0v88l584 739h-239v-194h-312v454h1215v-86l-539 -741h229v197h310v-457h-1248z" />
<glyph unicode="{" horiz-adv-x="1003" d="M162 -74q0 75 30 155t66 133.5t66 103t30 71.5q0 19 -8.5 29.5t-47 18t-112.5 7.5v226q74 0 112.5 7.5t47 18t8.5 29.5q0 22 -30 71.5t-66 103t-66 133.5t-30 155q0 169 121 282t317 113q149 0 285 -39v-215h-51q-37 0 -63 -29t-26 -71q0 -96 30 -218.5t30 -183.5 q0 -108 -48.5 -172.5t-178.5 -97.5q130 -33 178.5 -97.5t48.5 -172.5q0 -61 -30 -183t-30 -217q0 -44 26 -73t63 -29h51v-215q-156 -39 -285 -39q-196 0 -317 113t-121 282z" />
<glyph unicode="|" horiz-adv-x="544" d="M55 0v1544h449v-1544h-449z" />
<glyph unicode="}" horiz-adv-x="1003" d="M111 -215h51q37 0 62.5 29t25.5 73q0 95 -30 217t-30 183q0 108 48.5 172.5t179.5 97.5q-131 33 -179.5 97.5t-48.5 172.5q0 61 30 183.5t30 218.5q0 43 -25.5 71.5t-62.5 28.5h-51v215q136 39 284 39q196 0 317.5 -113t121.5 -282q0 -75 -30 -155t-66.5 -133.5 t-66.5 -103t-30 -71.5q0 -19 8.5 -29.5t47 -18t112.5 -7.5v-226q-74 0 -112.5 -7.5t-47 -18t-8.5 -29.5q0 -22 30 -71.5t66.5 -103t66.5 -133.5t30 -155q0 -169 -121.5 -282t-317.5 -113q-128 0 -284 39v215z" />
<glyph unicode="~" horiz-adv-x="925" d="M45 440q-20 166 66 255t219 89q66 0 124.5 -17t93 -38t71 -38t61.5 -17q22 0 38.5 12t16.5 33v65h144q20 -166 -65 -255t-218 -89q-66 0 -125 17.5t-93.5 38t-70.5 38t-61 17.5q-23 0 -40.5 -11.5t-17.5 -33.5v-66h-143z" />
<glyph unicode="&#xa2;" horiz-adv-x="1251" d="M57 526q0 212 129 358t328 191v182h264v-178q167 -32 273 -143t106 -219q0 -111 -57.5 -171.5t-153.5 -60.5q-70 0 -109.5 43t-39.5 95q0 37 24.5 74t24.5 57q0 29 -25.5 55.5t-72.5 26.5q-158 0 -158 -310q0 -309 158 -309q83 0 148.5 48.5t92.5 125.5h205 q-32 -172 -142 -282.5t-274 -139.5v-176h-264v184q-199 43 -328 189.5t-129 359.5z" />
<glyph unicode="&#xa3;" horiz-adv-x="1613" d="M74 215q0 118 107 187t286 69q41 0 129 -10q86 69 22 149h-401v160h291q-16 23 -57.5 62t-73 72t-58 93t-26.5 131q0 84 43.5 164.5t123.5 145.5t206 105t278 40q147 0 255.5 -34t169 -93.5t88.5 -130.5t28 -154q0 -115 -68.5 -188.5t-181.5 -73.5q-99 0 -153 43.5 t-54 114.5q0 37 24.5 70.5t24.5 54.5q0 37 -29.5 58.5t-84.5 21.5q-67 0 -105.5 -33.5t-38.5 -85.5q0 -37 14.5 -72t37.5 -66.5t47.5 -65t49.5 -80.5t38 -99h303v-160h-275q2 -14 2 -45q0 -82 -65 -153q14 -4 66 -20.5t77 -23.5t66.5 -18t71.5 -15.5t55 -4.5t43 18.5 t18 44.5v76h172v-172q0 -80 -37.5 -146t-98 -106.5t-133.5 -62t-149 -21.5q-129 0 -254.5 40.5t-181.5 94.5q-64 -64 -139.5 -99.5t-143.5 -35.5q-139 0 -234 70t-95 184zM354 197q0 -22 21.5 -39t58.5 -17q33 0 64.5 21.5t52.5 56.5q-61 33 -117 33q-39 0 -59.5 -16 t-20.5 -39z" />
<glyph unicode="&#xa5;" horiz-adv-x="1632" d="M12 1151v397h856v-397h-104l156 -301l157 301h-104v397h647v-397h-137l-142 -215h215v-160h-319l-68 -104h387v-162h-426v-111h168v-395h-950v395h168v111h-430v162h397l-67 104h-330v160h225l-141 215h-158z" />
<glyph unicode="&#xa8;" horiz-adv-x="921" d="M41 1202v309h367v-309h-367zM512 1202v309h367v-309h-367z" />
<glyph unicode="&#xa9;" horiz-adv-x="1826" d="M84 772q0 169 62 318.5t170 258t263.5 171.5t333.5 63q179 0 335 -63t264.5 -171.5t170.5 -258t62 -318.5t-62 -318.5t-170.5 -258t-264.5 -171.5t-335 -63q-178 0 -333.5 63t-263.5 171.5t-170 258t-62 318.5zM207 772q0 -145 52 -272.5t143.5 -220t224 -146 t286.5 -53.5t287 53.5t225.5 146.5t144.5 220t52 272q0 144 -52 271.5t-144.5 219.5t-225 145.5t-287.5 53.5q-154 0 -286.5 -53.5t-224 -145.5t-143.5 -219.5t-52 -271.5zM477 756q0 85 26 159t67 123.5t91.5 85t98.5 52t90 16.5q145 0 205 -105v84h258v-366h-238v10 q0 73 -36 121.5t-95 48.5q-58 0 -93.5 -48.5t-35.5 -121.5v-117q0 -75 35.5 -123.5t93.5 -48.5q59 0 95 48.5t36 123.5v15h238q0 -181 -111.5 -287.5t-288.5 -106.5q-185 0 -310.5 120t-125.5 317z" />
<glyph unicode="&#xab;" horiz-adv-x="1540" d="M68 438v209q179 35 316 161.5t183 278.5h189q0 -150 -62 -309t-151 -235q89 -75 151 -234t62 -309h-189q-46 152 -183 277.5t-316 160.5zM766 438v209q179 35 316.5 161.5t183.5 278.5h188q0 -150 -62 -309t-151 -235q89 -75 151 -234t62 -309h-188q-46 151 -183.5 277 t-316.5 161z" />
<glyph unicode="&#xad;" horiz-adv-x="796" d="M72 459v309h653v-309h-653z" />
<glyph unicode="&#xae;" horiz-adv-x="913" d="M43 1139q0 172 116.5 288.5t297.5 116.5t298 -116.5t117 -288.5q0 -173 -117 -290.5t-298 -117.5t-297.5 117.5t-116.5 290.5zM104 1139q0 -148 99 -247t254 -99q156 0 255 99t99 247t-99 246t-255 98q-155 0 -254 -98t-99 -246zM242 942v102h53v193h-53v100h288 q64 0 102 -27.5t38 -72.5q0 -38 -25.5 -61t-75.5 -37q39 -4 60.5 -30.5t21.5 -64.5q0 -16 15 -16q16 0 16 16v19h45v-45q0 -39 -35.5 -61.5t-85.5 -22.5q-41 0 -70.5 28.5t-29.5 71.5q0 44 -13 60t-36 16h-27v-66h43v-102h-231zM430 1169h53q37 0 37 35q0 33 -37 33h-53v-68 z" />
<glyph unicode="&#xb4;" horiz-adv-x="649" d="M29 1192l168 352h421l-333 -352h-256z" />
<glyph unicode="&#xb8;" horiz-adv-x="618" d="M29 -428q0 49 28 74.5t76 25.5q33 0 52.5 -18.5t19.5 -40.5q0 -17 -11.5 -32.5t-11.5 -24.5q0 -13 12.5 -25t34.5 -12q99 0 99 157q0 67 -19.5 95t-64.5 28q-33 0 -55.5 -10.5t-51.5 -34.5l-100 60l213 286l102 -59l-133 -176q26 18 94 18q118 0 197.5 -67t79.5 -170 q0 -100 -90.5 -170t-229.5 -70q-104 0 -172.5 54.5t-68.5 111.5z" />
<glyph unicode="&#xbb;" horiz-adv-x="1540" d="M68 0q0 150 62 309t151 234q-89 76 -151 235t-62 309h188q46 -152 183.5 -278.5t316.5 -161.5v-209q-179 -35 -316.5 -161t-183.5 -277h-188zM766 0q0 150 62 309t151 234q-89 76 -151 235t-62 309h188q46 -152 183.5 -278.5t316.5 -161.5v-209q-179 -35 -316.5 -161 t-183.5 -277h-188z" />
<glyph unicode="&#x2c6;" horiz-adv-x="831" d="M37 1192l188 352h381l189 -352h-256l-123 184l-123 -184h-256z" />
<glyph unicode="&#x2da;" horiz-adv-x="552" d="M25 1397q0 102 72 162.5t179 60.5q108 0 180 -61t72 -162t-72 -162t-180 -61q-107 0 -179 60.5t-72 162.5zM197 1380q0 -110 79 -110q80 0 80 110v33q0 50 -19.5 80.5t-60.5 30.5q-79 0 -79 -111v-33z" />
<glyph unicode="&#x2dc;" horiz-adv-x="925" d="M45 1190q-20 166 66 255t219 89q66 0 124.5 -17.5t93 -38t71 -38t61.5 -17.5q22 0 38.5 12t16.5 33v66h144q20 -166 -65 -255t-218 -89q-66 0 -125 17t-93.5 38t-70.5 38t-61 17q-23 0 -40.5 -11.5t-17.5 -33.5v-65h-143z" />
<glyph unicode="&#x2000;" horiz-adv-x="874" />
<glyph unicode="&#x2001;" horiz-adv-x="1749" />
<glyph unicode="&#x2002;" horiz-adv-x="874" />
<glyph unicode="&#x2003;" horiz-adv-x="1749" />
<glyph unicode="&#x2004;" horiz-adv-x="583" />
<glyph unicode="&#x2005;" horiz-adv-x="437" />
<glyph unicode="&#x2006;" horiz-adv-x="291" />
<glyph unicode="&#x2007;" horiz-adv-x="291" />
<glyph unicode="&#x2008;" horiz-adv-x="218" />
<glyph unicode="&#x2009;" horiz-adv-x="349" />
<glyph unicode="&#x200a;" horiz-adv-x="97" />
<glyph unicode="&#x2010;" horiz-adv-x="796" d="M72 459v309h653v-309h-653z" />
<glyph unicode="&#x2011;" horiz-adv-x="796" d="M72 459v309h653v-309h-653z" />
<glyph unicode="&#x2012;" horiz-adv-x="796" d="M72 459v309h653v-309h-653z" />
<glyph unicode="&#x2013;" horiz-adv-x="1167" d="M72 459v309h1024v-309h-1024z" />
<glyph unicode="&#x2014;" horiz-adv-x="1679" d="M72 459v309h1536v-309h-1536z" />
<glyph unicode="&#x2018;" d="M61 842v282q0 366 443 439v-156q-176 -23 -205 -193h205v-372h-443z" />
<glyph unicode="&#x2019;" d="M61 823v156q176 23 205 192h-205v373h443v-282q0 -366 -443 -439z" />
<glyph unicode="&#x201a;" d="M61 0v373h443v-283q0 -365 -443 -438v155q176 23 205 193h-205z" />
<glyph unicode="&#x201c;" horiz-adv-x="1079" d="M61 842v282q0 366 443 439v-156q-176 -23 -205 -193h205v-372h-443zM575 842v282q0 366 443 439v-156q-176 -23 -205 -193h205v-372h-443z" />
<glyph unicode="&#x201d;" horiz-adv-x="1079" d="M61 823v156q176 23 205 192h-205v373h443v-282q0 -366 -443 -439zM575 823v156q176 23 205 192h-205v373h443v-282q0 -366 -443 -439z" />
<glyph unicode="&#x201e;" horiz-adv-x="1079" d="M61 0v373h443v-283q0 -365 -443 -438v155q176 23 205 193h-205zM575 0v373h443v-283q0 -365 -443 -438v155q176 23 205 193h-205z" />
<glyph unicode="&#x2022;" horiz-adv-x="686" d="M31 772q0 129 88 216t223 87t224 -87t89 -216q0 -130 -88.5 -217.5t-224.5 -87.5q-135 0 -223 87.5t-88 217.5z" />
<glyph unicode="&#x2026;" horiz-adv-x="1705" d="M55 0v373h443v-373h-443zM627 0v373h442v-373h-442zM1198 0v373h442v-373h-442z" />
<glyph unicode="&#x202f;" horiz-adv-x="349" />
<glyph unicode="&#x2039;" horiz-adv-x="788" d="M35 438v209q179 35 316.5 161.5t183.5 278.5h188q0 -150 -62 -309t-151 -235q89 -75 151 -234t62 -309h-188q-46 151 -183.5 277t-316.5 161z" />
<glyph unicode="&#x203a;" horiz-adv-x="788" d="M68 0q0 150 62 309t151 234q-89 76 -151 235t-62 309h188q46 -152 183.5 -278.5t316.5 -161.5v-209q-179 -35 -316.5 -161t-183.5 -277h-188z" />
<glyph unicode="&#x205f;" horiz-adv-x="437" />
<glyph unicode="&#x20ac;" horiz-adv-x="1804" d="M61 532v160h132q-3 41 -3 80v53h-129v162h154q43 181 156.5 317t273.5 207.5t344 71.5q162 0 299 -44.5t226 -117.5t138.5 -166t49.5 -192q0 -135 -63 -217t-201 -82q-116 0 -181 50.5t-65 127.5q0 46 16.5 83.5t16.5 57.5q0 47 -37.5 82t-114.5 35q-181 0 -211 -213h176 v-162h-184v-133h184v-160h-172q18 -88 66 -138t127 -50q94 0 142 65.5t48 188.5v57h437q0 -331 -185 -512.5t-500 -181.5q-284 0 -497.5 152.5t-284.5 418.5h-158z" />
<glyph unicode="&#x2122;" horiz-adv-x="2377" d="M78 1184v360h883v-360h-211v162h-78v-377h84v-197h-475v197h84v377h-78v-162h-209zM1055 772v197h84v377h-84v198h532l96 -252l97 252h536v-198h-82v-377h82v-197h-458v197h67v295h-20l-201 -492h-131l-199 492h-22v-295h67v-197h-364z" />
<glyph unicode="&#x25fc;" horiz-adv-x="1085" d="M0 0v1085h1085v-1085h-1085z" />
</font>
</defs>
</svg>
