<svg xmlns="http://www.w3.org/2000/svg" width="468" height="275" viewBox="0 0 468 275">
  <path fill="#E75C00" fill-rule="evenodd" d="M156.818835,0 L156.818,92.317 L267.818835,6 L267.818,99.798 L389.818835,6 L389.818835,42.9129474 L267.818,138.112 L267.818835,212.677298 L238.438885,212.677298 L238.438885,67.0840066 L156.818,131.605 L156.818,182.381 L218.766463,182.381967 L218.766463,212.677298 L156.818,212.677 L156.818835,274.586097 L0,152.260769 L108.173822,67.915767 L108.173822,105.983122 L49.7936023,151.602275 L127.438885,213.502091 L127.438885,0 L156.818835,0 Z M467.818835,6 L467.818835,163.677298 L384.605998,163.677298 L384.605998,133.530886 L442.205468,133.530886 L442.205468,67.0910392 L334.955338,147.301073 L369.406995,182.451615 L467.818835,182.451615 L467.818835,212.677298 L356.419913,212.677298 L288.90413,145.242371 L467.818835,6 Z" transform="translate(.17 .323)"/>
</svg>
