<svg xmlns="http://www.w3.org/2000/svg" width="61" height="62" viewBox="0 0 61 62">
  <path d="M7.39393939,42 L5.54545455,42 L5.54545455,46 L7.39393939,46 L7.39393939,42 Z M7.39393939,36 L5.54545455,36 L5.54545455,40 L7.39393939,40 L7.39393939,36 Z M11.0909091,42 L9.24242424,42 L9.24242424,46 L11.0909091,46 L11.0909091,42 Z M11.0909091,36 L9.24242424,36 L9.24242424,40 L11.0909091,40 L11.0909091,36 Z M7.39393939,30 L5.54545455,30 L5.54545455,34 L7.39393939,34 L7.39393939,30 Z M11.0909091,30 L9.24242424,30 L9.24242424,34 L11.0909091,34 L11.0909091,30 Z M22.1818182,18 L20.3333333,18 L20.3333333,22 L22.1818182,22 L22.1818182,18 Z M22.1818182,12 L20.3333333,12 L20.3333333,16 L22.1818182,16 L22.1818182,12 Z M25.8787879,18 L24.030303,18 L24.030303,22 L25.8787879,22 L25.8787879,18 Z M25.8787879,12 L24.030303,12 L24.030303,16 L25.8787879,16 L25.8787879,12 Z M22.1818182,6 L20.3333333,6 L20.3333333,10 L22.1818182,10 L22.1818182,6 Z M25.8787879,6 L24.030303,6 L24.030303,10 L25.8787879,10 L25.8787879,6 Z M29.5757576,18 L27.7272727,18 L27.7272727,22 L29.5757576,22 L29.5757576,18 Z M29.5757576,12 L27.7272727,12 L27.7272727,16 L29.5757576,16 L29.5757576,12 Z M33.2727273,18 L31.4242424,18 L31.4242424,22 L33.2727273,22 L33.2727273,18 Z M33.2727273,12 L31.4242424,12 L31.4242424,16 L33.2727273,16 L33.2727273,12 Z M29.5757576,6 L27.7272727,6 L27.7272727,10 L29.5757576,10 L29.5757576,6 Z M33.2727273,6 L31.4242424,6 L31.4242424,10 L33.2727273,10 L33.2727273,6 Z M36.969697,18 L35.1212121,18 L35.1212121,22 L36.969697,22 L36.969697,18 Z M36.969697,12 L35.1212121,12 L35.1212121,16 L36.969697,16 L36.969697,12 Z M40.6666667,18 L38.8181818,18 L38.8181818,22 L40.6666667,22 L40.6666667,18 Z M40.6666667,12 L38.8181818,12 L38.8181818,16 L40.6666667,16 L40.6666667,12 Z M36.969697,6 L35.1212121,6 L35.1212121,10 L36.969697,10 L36.969697,6 Z M40.6666667,6 L38.8181818,6 L38.8181818,10 L40.6666667,10 L40.6666667,6 Z M22.1818182,30 L20.3333333,30 L20.3333333,34 L22.1818182,34 L22.1818182,30 Z M22.1818182,24 L20.3333333,24 L20.3333333,28 L22.1818182,28 L22.1818182,24 Z M25.8787879,30 L24.030303,30 L24.030303,34 L25.8787879,34 L25.8787879,30 Z M25.8787879,24 L24.030303,24 L24.030303,28 L25.8787879,28 L25.8787879,24 Z M29.5757576,30 L27.7272727,30 L27.7272727,34 L29.5757576,34 L29.5757576,30 Z M29.5757576,24 L27.7272727,24 L27.7272727,28 L29.5757576,28 L29.5757576,24 Z M33.2727273,30 L31.4242424,30 L31.4242424,34 L33.2727273,34 L33.2727273,30 Z M33.2727273,24 L31.4242424,24 L31.4242424,28 L33.2727273,28 L33.2727273,24 Z M36.969697,30 L35.1212121,30 L35.1212121,34 L36.969697,34 L36.969697,30 Z M36.969697,24 L35.1212121,24 L35.1212121,28 L36.969697,28 L36.969697,24 Z M40.6666667,30 L38.8181818,30 L38.8181818,34 L40.6666667,34 L40.6666667,30 Z M40.6666667,24 L38.8181818,24 L38.8181818,28 L40.6666667,28 L40.6666667,24 Z M22.1818182,36 L20.3333333,36 L20.3333333,40 L22.1818182,40 L22.1818182,36 Z M25.8787879,36 L24.030303,36 L24.030303,40 L25.8787879,40 L25.8787879,36 Z M29.5757576,36 L27.7272727,36 L27.7272727,40 L29.5757576,40 L29.5757576,36 Z M33.2727273,36 L31.4242424,36 L31.4242424,40 L33.2727273,40 L33.2727273,36 Z M36.969697,36 L35.1212121,36 L35.1212121,40 L36.969697,40 L36.969697,36 Z M40.6666667,36 L38.8181818,36 L38.8181818,40 L40.6666667,40 L40.6666667,36 Z M51.7575758,42 L49.9090909,42 L49.9090909,46 L51.7575758,46 L51.7575758,42 Z M51.7575758,36 L49.9090909,36 L49.9090909,40 L51.7575758,40 L51.7575758,36 Z M55.4545455,42 L53.6060606,42 L53.6060606,46 L55.4545455,46 L55.4545455,42 Z M55.4545455,36 L53.6060606,36 L53.6060606,40 L55.4545455,40 L55.4545455,36 Z M51.7575758,30 L49.9090909,30 L49.9090909,34 L51.7575758,34 L51.7575758,30 Z M55.4545455,30 L53.6060606,30 L53.6060606,34 L55.4545455,34 L55.4545455,30 Z M40.6666667,46 L20.3333333,46 L20.3333333,44 L40.6666667,44 L40.6666667,46 Z M61,24 L61,62 L0,62 L0,24 L14.7878788,24 L14.7878788,0 L46.2121212,0 L46.2121212,24 L61,24 Z M9.24242424,54 L7.39393939,54 L7.39393939,60 L9.24242424,60 L9.24242424,54 Z M14.7878788,26 L1.84848485,26 L1.84848485,60 L5.54545455,60 L5.54545455,52 L11.0909091,52 L11.0909091,60 L14.7878788,60 L14.7878788,26 Z M33.2727273,52 L27.7272727,52 L27.7272727,60 L33.2727273,60 L33.2727273,52 Z M44.3636364,2 L16.6363636,2 L16.6363636,60 L25.8787879,60 L25.8787879,50 L35.1212121,50 L35.1212121,60 L44.3636364,60 L44.3636364,2 Z M53.6060606,54 L51.7575758,54 L51.7575758,60 L53.6060606,60 L53.6060606,54 Z M59.1515152,26 L46.2121212,26 L46.2121212,60 L49.9090909,60 L49.9090909,52 L55.4545455,52 L55.4545455,60 L59.1515152,60 L59.1515152,26 Z"/>
</svg>
