<svg xmlns="http://www.w3.org/2000/svg" width="62" height="41" viewBox="0 0 62 41">
  <path d="M60.5147679,10.5670413 L30.748097,0.0445231719 C30.5897617,-0.0148410573 30.4152822,-0.0148410573 30.256947,0.0445231719 L0.490276088,10.5670413 C0.19596968,10.6738603 -2.07322325e-15,10.9534662 -2.07322325e-15,11.2665581 C-2.07322325e-15,11.57965 0.19596968,11.8592559 0.490276088,11.9660749 L5.20085175,13.6181251 L5.20085175,29.0000523 C3.96700017,29.2442945 2.9337441,30.0828486 2.44079258,31.2400188 C1.94784107,32.3971889 2.05897629,33.7232509 2.73765974,34.7822281 L1.71070959,39.5895454 C1.66316878,39.8096986 1.71789242,40.0395378 1.85954295,40.2146455 C2.0014035,40.3895183 2.21481679,40.4907528 2.43999303,40.4899958 L9.45748571,40.4899958 C9.68005349,40.4885153 9.89027815,40.3874983 10.0304941,40.2146455 C10.1721446,40.0395378 10.2268683,39.8096986 10.1793275,39.5895454 L9.159819,34.7747864 C9.54926655,34.1629244 9.75819383,33.4536037 9.76259409,32.7283278 C9.75142481,30.9156754 8.46710578,29.3608097 6.68918529,29.0074939 L6.68918529,14.1241585 L10.4695525,15.4636587 L10.4695525,28.3377438 C10.4695525,30.1907191 11.600686,32.8027445 16.9884534,34.6482781 C21.3637696,35.9952366 25.925353,36.6382792 30.502522,36.553345 C40.4594734,36.553345 50.5057248,34.0157363 50.5057248,28.3675105 L50.5057248,23.7536765 C50.5057248,23.599882 50.5057248,23.4361653 50.5057248,23.2625265 L50.5057248,15.4934254 L60.5147679,11.9511915 C60.8090742,11.8443726 61.0050439,11.5647666 61.0050439,11.2516748 C61.0050439,10.9385828 60.8090742,10.658977 60.5147679,10.552158 L60.5147679,10.5670413 Z M8.53471891,39.0090953 L3.32555149,39.0090953 L3.96553491,36.0324282 C5.16126002,36.7680705 6.66924368,36.7680705 7.86496882,36.0324282 L8.53471891,39.0090953 Z M8.27428433,32.7357695 C8.27727256,33.6785312 7.7116846,34.5301386 6.84154932,34.8930069 C5.971414,35.2558752 4.96834737,35.0584362 4.30064494,34.392867 C3.63294251,33.7272979 3.43229471,32.7248682 3.79237673,31.8535761 C4.15245875,30.9822841 5.00225191,30.4139691 5.94501852,30.4139691 C7.22852279,30.4139691 8.27015989,31.4522717 8.27428433,32.7357695 L8.27428433,32.7357695 Z M43.4733488,33.2418029 C39.2731211,34.5305659 34.8952746,35.1459258 30.502522,35.0650114 C21.5204291,35.0650114 11.9802111,32.7060028 11.9802111,28.3675105 L11.9802111,26.6484853 C13.4101609,28.0122277 15.1450283,29.014879 17.0405451,29.5730607 C21.3990455,30.9152966 25.9427307,31.5582946 30.502522,31.4781276 C38.1376731,31.4781276 45.8249158,29.9897941 48.9950663,26.7303436 L48.9950663,28.3377438 C48.9950663,30.8158192 45.9886325,32.3711277 43.4733488,33.2418029 L43.4733488,33.2418029 Z M43.4733488,28.1665855 C39.2730666,29.4551032 34.8952593,30.0704577 30.502522,29.9897941 C21.5278707,29.9897941 11.9876527,27.6307854 11.9876527,23.2922931 L11.9876527,16.0217838 L30.256947,22.4737097 C30.4168768,22.523508 30.5881672,22.523508 30.748097,22.4737097 L49.0173913,16.0143421 L49.0173913,23.2550848 C49.0173913,25.7406018 46.0183992,27.2959104 43.5031155,28.1665855 L43.4733488,28.1665855 Z M30.502522,20.9853761 L8.84726896,13.3279001 L27.1984215,12.2042082 C28.0332934,13.1377654 29.2532485,13.6323418 30.502522,13.5437084 C32.5713056,13.5437084 34.1266142,12.5762916 34.1266142,11.3112081 C34.1266142,10.0461246 32.5713056,9.0787078 30.502522,9.0787078 C28.7314051,9.0787078 27.3472549,9.82287457 26.9826132,10.8051747 L5.90036851,12.0553749 C5.76765889,12.0660476 5.64094051,12.1151833 5.5357268,12.1967666 L2.96835144,11.2516748 L30.502522,1.51797338 L58.0366925,11.2516748 L30.502522,20.9853761 Z M30.502522,12.0553749 L30.3164803,12.0553749 L30.547172,12.0553749 C30.8130372,12.0394229 31.0501964,11.8828454 31.1693143,11.6446234 C31.2884321,11.4064015 31.2714116,11.1227267 31.1246643,10.9004566 C30.9779169,10.6781866 30.7237372,10.5510894 30.457872,10.5670413 L29.7583552,10.5670413 C30.0042741,10.5252631 30.2530952,10.5028692 30.502522,10.5000663 C31.9015555,10.5000663 32.6382806,11.0730747 32.6382806,11.2442331 C32.6382806,11.4153915 31.9015555,12.0553749 30.502522,12.0553749 Z"/>
</svg>
