<svg xmlns="http://www.w3.org/2000/svg" width="56" height="60" viewBox="0 0 56 60">
  <path d="M54.459725,53.3104126 L51.7878193,53.3104126 L51.7878193,48.870334 C51.7878193,48.3278146 51.3480203,47.8880157 50.805501,47.8880157 L50.2554028,47.8880157 L50.2554028,25.0098232 L50.805501,25.0098232 C51.3480203,25.0098232 51.7878193,24.5700243 51.7878193,24.0275049 L51.7878193,19.5776031 L52.9076621,19.5776031 C53.4501814,19.5776031 53.8899804,19.1378042 53.8899804,18.5952849 L53.8899804,13.870334 C53.8899804,13.3278146 53.4501814,12.8880157 52.9076621,12.8880157 L52.0235756,12.8880157 L52.0235756,8.95874263 C52.0246658,8.53642838 51.7557089,8.16067988 51.3555992,8.02554028 L28.0353635,0.0294695481 L27.9273084,0.0294695481 C27.7925905,-0.00982318271 27.6494528,-0.00982318271 27.5147348,0.0294695481 L27.4066798,0.0294695481 L4.08644401,8.02554028 C3.68633426,8.16067988 3.41737745,8.53642838 3.41846758,8.95874263 L3.41846758,12.8880157 L2.53438114,12.8880157 C1.99186174,12.8880157 1.55206287,13.3278146 1.55206287,13.870334 L1.55206287,18.5952849 C1.55206287,19.1378042 1.99186174,19.5776031 2.53438114,19.5776031 L3.65422397,19.5776031 L3.65422397,24.0275049 C3.65422397,24.5700243 4.09402284,25.0098232 4.63654224,25.0098232 L5.18664047,25.0098232 L5.18664047,47.8880157 L4.63654224,47.8880157 C4.09402284,47.8880157 3.65422397,48.3278146 3.65422397,48.870334 L3.65422397,53.3104126 L0.982318271,53.3104126 C0.43979887,53.3104126 -1.09059236e-15,53.7502115 -1.09059236e-15,54.2927308 L-1.09059236e-15,59.0176817 C-1.09059236e-15,59.5602011 0.43979887,60 0.982318271,60 L54.459725,60 C55.0022443,60 55.4420432,59.5602011 55.4420432,59.0176817 L55.4420432,54.2927308 C55.4420432,53.7502115 55.0022443,53.3104126 54.459725,53.3104126 Z M34.0176817,53.3104126 L34.0176817,48.870334 C34.0176817,48.3278146 33.5778828,47.8880157 33.0353635,47.8880157 L32.4852652,47.8880157 L32.4852652,25.0098232 L33.0353635,25.0098232 C33.5778828,25.0098232 34.0176817,24.5700243 34.0176817,24.0275049 L34.0176817,19.5776031 L39.194499,19.5776031 L39.194499,24.0275049 C39.194499,24.5700243 39.6342979,25.0098232 40.1768173,25.0098232 L40.7269155,25.0098232 L40.7269155,47.8880157 L40.1768173,47.8880157 C39.6342979,47.8880157 39.194499,48.3278146 39.194499,48.870334 L39.194499,53.3104126 L34.0176817,53.3104126 Z M16.2475442,53.3104126 L16.2475442,48.870334 C16.2475442,48.3278146 15.8077453,47.8880157 15.2652259,47.8880157 L14.7151277,47.8880157 L14.7151277,25.0098232 L15.2652259,25.0098232 C15.8077453,25.0098232 16.2475442,24.5700243 16.2475442,24.0275049 L16.2475442,19.5776031 L21.4243615,19.5776031 L21.4243615,24.0275049 C21.4243615,24.5700243 21.8641604,25.0098232 22.4066798,25.0098232 L22.956778,25.0098232 L22.956778,47.8880157 L22.4066798,47.8880157 C21.8641604,47.8880157 21.4243615,48.3278146 21.4243615,48.870334 L21.4243615,53.3104126 L16.2475442,53.3104126 Z M30.5206287,47.8880157 L24.9214145,47.8880157 L24.9214145,25.0098232 L30.5206287,25.0098232 L30.5206287,47.8880157 Z M32.0530452,23.0451866 L23.388998,23.0451866 L23.388998,19.5776031 L32.0530452,19.5776031 L32.0530452,23.0451866 Z M23.388998,49.8526523 L32.0530452,49.8526523 L32.0530452,53.3104126 L23.388998,53.3104126 L23.388998,49.8526523 Z M41.1591356,49.8526523 L49.8231827,49.8526523 L49.8231827,53.3104126 L41.1591356,53.3104126 L41.1591356,49.8526523 Z M48.2907662,47.8880157 L42.6915521,47.8880157 L42.6915521,25.0098232 L48.2907662,25.0098232 L48.2907662,47.8880157 Z M49.8231827,23.0451866 L41.1591356,23.0451866 L41.1591356,19.5776031 L49.8231827,19.5776031 L49.8231827,23.0451866 Z M5.38310413,9.65618861 L27.7210216,2.00392927 L50.0589391,9.65618861 L50.0589391,12.8880157 L5.38310413,12.8880157 L5.38310413,9.65618861 Z M3.51669941,14.8526523 L51.9253438,14.8526523 L51.9253438,17.6129666 L3.51669941,17.6129666 L3.51669941,14.8526523 Z M14.3222004,19.5776031 L14.3222004,23.0451866 L5.61886051,23.0451866 L5.61886051,19.5776031 L14.3222004,19.5776031 Z M7.19056974,25.0098232 L12.7897839,25.0098232 L12.7897839,47.8880157 L7.19056974,47.8880157 L7.19056974,25.0098232 Z M5.61886051,49.8526523 L14.2829077,49.8526523 L14.2829077,53.3104126 L5.61886051,53.3104126 L5.61886051,49.8526523 Z M53.4774067,58.0353635 L1.96463654,58.0353635 L1.96463654,55.2750491 L53.4774067,55.2750491 L53.4774067,58.0353635 Z"/>
</svg>
