<svg xmlns="http://www.w3.org/2000/svg" width="56" height="60" viewBox="0 0 56 60">
  <path d="M31.899977,56.7027 C31.608677,56.7027 31.359977,56.67435 31.157477,56.6139 C28.755827,55.885575 16.633652,55.661775 12.167777,55.636875 C11.677502,55.63335 11.282927,55.2354 11.2864785,54.745125 C11.290052,54.258375 11.687927,53.864025 12.174677,53.864025 L12.178202,53.864025 C12.846077,53.867625 28.539077,53.963475 31.676177,54.915675 C32.884127,55.285125 39.325727,53.178375 50.982527,47.6466 C51.103352,47.58975 51.146102,47.4867 51.160352,47.43345 C51.174527,47.3766 51.188252,47.2629 51.106577,47.1492 C50.047802,45.674775 48.129527,45.10635 46.434827,45.763575 L37.020152,49.433625 C35.989877,49.8351 34.845152,49.867125 33.793502,49.529625 L28.837202,47.92725 C28.371827,47.774475 28.116377,47.277075 28.265627,46.8117 C28.414877,46.34625 28.915652,46.0905 29.381102,46.239675 L34.337327,47.841975 C35.001752,48.055125 35.722952,48.033825 36.373127,47.7816 L45.787727,44.111475 C48.235652,43.15935 51.017777,43.9836 52.549052,46.11885 C52.914977,46.630425 53.035802,47.27355 52.879502,47.88105 C52.723202,48.485025 52.310702,48.986025 51.745802,49.252425 C44.391527,52.734225 35.289377,56.7027 31.899977,56.7027 Z"/>
  <path d="M35.182727,47.96295 L21.340952,47.96295 C20.850602,47.96295 20.452727,47.565075 20.452727,47.074725 C20.452727,46.58445 20.850602,46.186575 21.340952,46.186575 L35.054327,46.186575 C34.990352,44.491875 33.644102,43.1382 31.935227,43.08495 C29.455352,43.0032 27.558527,42.8682 26.293727,42.683475 C24.961427,42.488025 23.731727,42.0759 22.424327,41.638875 C20.580377,41.020725 18.672302,40.3812 16.401977,40.3812 C13.442477,40.3812 9.75135202,43.84875 8.58247702,45.184575 C8.25922702,45.5541 7.69770202,45.58965 7.33170205,45.266325 C6.96225205,44.943075 6.92685205,44.3817 7.25017705,44.015775 C7.44202705,43.7955 12.043502,38.60835 16.406327,38.60835 C18.964352,38.60835 21.102302,39.326025 22.992452,39.954825 C24.221702,40.36695 25.380527,40.75425 26.556527,40.928325 C27.753827,41.106 29.583527,41.233875 31.995902,41.312025 C34.710302,41.4009 36.835052,43.596525 36.835052,46.31085 C36.831527,47.2239 36.092252,47.96295 35.182727,47.96295 Z"/>
  <path d="M7.10505205,60 C6.99135205,60 6.87765205,59.9787 6.77107705,59.9361 C6.55080205,59.847225 6.37680205,59.676675 6.28800205,59.46 L0.0705245583,44.76195 C-0.121325441,44.31075 0.0920420586,43.791975 0.543257059,43.600125 L6.40852705,41.1168 C6.62527705,41.0244 6.87097705,41.0244 7.08772705,41.1132 C7.30440205,41.202 7.47847705,41.37255 7.57080202,41.5893 L13.788302,56.287275 C13.980152,56.738475 13.766777,57.25725 13.315577,57.4491 L7.44937705,59.9325 C7.33927705,59.9787 7.22227705,60 7.10505205,60 Z M2.04990205,44.889825 L7.57777702,57.953625 L11.808902,56.163 L6.28102705,43.099275 L2.04990205,44.889825 Z M47.433077,41.94465 C47.209202,41.94465 46.985252,41.8593 46.811177,41.69235 C46.462952,41.347725 46.456127,40.78635 46.800752,40.4382 C50.996627,36.160575 53.309627,30.504525 53.309627,24.514425 C53.309627,11.976525 43.108952,1.772835 30.571052,1.772835 C18.033077,1.772835 7.82985202,11.973 7.82985202,24.514425 C7.82985202,29.090475 9.18285202,33.499575 11.740877,37.269075 C12.018002,37.674075 11.911727,38.2248 11.506652,38.501925 C11.101652,38.77905 10.551227,38.672475 10.274102,38.267475 C7.51357702,34.203 6.05340205,29.44575 6.05340205,24.514425 C6.05340205,10.995975 17.049077,0 30.567527,0 C44.086052,0 55.082552,10.995975 55.082552,24.514425 C55.082552,30.9735 52.591577,37.0737 48.068852,41.6817 C47.891252,41.855775 47.660477,41.94465 47.433077,41.94465 Z"/>
  <path d="M19.966127,37.1946 C19.941302,37.1946 19.916402,37.1946 19.891577,37.191 C19.404827,37.1484 19.038752,36.7221 19.081427,36.231825 C19.234202,34.419825 19.407827,32.362725 18.839402,31.7943 C18.338477,31.293375 13.976102,26.7564 15.450527,22.151925 C16.079402,20.187225 12.163577,16.28265 9.18277702,14.13675 C8.78482702,13.8525 8.69647702,13.2948 8.98065202,12.900375 C9.26842702,12.5025 9.82230202,12.413625 10.216727,12.697875 C11.058752,13.30185 18.409502,18.72705 17.137577,22.692 C16.199627,25.619475 18.555302,29.00175 20.093627,30.54015 C21.244802,31.69125 21.060527,33.865575 20.850902,36.381 C20.811827,36.846375 20.420927,37.1946 19.966127,37.1946 Z M25.973552,39.496875 C25.803002,39.496875 25.629302,39.44715 25.476527,39.3441 C25.071527,39.0705 24.964427,38.516325 25.238027,38.11125 C25.685702,37.450425 26.257427,36.9246 26.765477,36.46275 C26.960927,36.285075 27.149927,36.111075 27.327602,35.9334 C27.412802,35.848125 27.423377,35.7522 27.331052,35.1909 C27.171152,34.224525 26.925827,32.764275 28.670252,31.01985 C29.913752,29.77635 31.114802,28.074525 31.807652,26.5788 C32.535977,25.004925 32.642627,23.78985 32.099102,23.24985 C31.694027,22.844775 31.537427,22.7844 30.297527,23.90355 C29.519402,24.60345 28.641827,25.399275 27.487202,25.399275 C25.753352,25.399275 25.326902,23.94615 25.014227,22.88385 C24.762002,22.020525 24.499127,21.132375 23.753027,20.38275 C22.854227,19.483875 21.692327,19.00065 20.463077,18.4926 C19.248002,17.988075 17.990177,17.469375 17.027327,16.5066 C16.348727,15.828 16.402427,15.188475 16.491302,14.86875 C16.821677,13.699875 18.438002,13.230825 20.683352,12.69795 C21.184352,12.58065 21.866927,12.417225 22.033877,12.328425 C22.417577,12.10815 22.882652,12.022875 23.380052,11.9376 C24.516977,11.7351 25.689227,11.529075 26.421152,9.8841 C27.199202,8.13615 25.241702,4.22085 23.827652,2.1602325 C23.550527,1.75521 23.653427,1.2045225 24.054902,0.927405 C24.456377,0.6502875 25.011227,0.7533525 25.288352,1.15482 C25.721777,1.7836725 29.469752,7.38645 28.037927,10.601775 C26.922377,13.110075 24.893477,13.46895 23.681927,13.6821 C23.390627,13.731825 23.028077,13.799325 22.910852,13.863225 C22.562627,14.0658 22.019327,14.2008 21.084977,14.421075 C20.385077,14.588025 18.857252,14.950425 18.313652,15.29145 C19.024202,15.9807 20.047352,16.40355 21.130952,16.851225 C22.406402,17.380575 23.849327,17.977425 24.996902,19.125 C26.062727,20.190825 26.435627,21.455625 26.705627,22.3794 C27.057377,23.573175 27.153452,23.622825 27.476777,23.622825 C27.949277,23.622825 28.531277,23.093475 29.096177,22.585425 C30.044777,21.7257 31.636652,20.29035 33.342077,21.9957 C34.130777,22.7844 34.781177,24.347625 33.406202,27.3213 C32.631677,28.9947 31.296152,30.891975 29.914127,32.270475 C28.812752,33.37185 28.933427,34.0788 29.068427,34.896 C29.175002,35.542575 29.323727,36.4308 28.570502,37.18395 C28.375127,37.3794 28.166102,37.57125 27.952952,37.766625 C27.498227,38.18235 27.029177,38.615775 26.695277,39.102525 C26.535377,39.361875 26.257802,39.496875 25.973552,39.496875 Z M47.430077,41.941275 C47.319902,41.941275 47.209727,41.919975 47.099627,41.8773 C46.644827,41.6961 46.424777,41.1774 46.609502,40.722675 C47.774852,37.8342 47.035127,36.779025 45.862727,35.6031 C44.846552,34.586925 45.433502,33.258225 45.906077,32.1888 C46.574027,30.668175 46.903652,29.66985 45.862727,28.625325 C44.949602,27.7122 43.933802,27.541725 42.853727,27.357 C41.272727,27.086925 39.308252,26.75655 38.736227,23.5554 C38.299202,21.1146 39.194777,18.844425 41.131052,17.487225 C42.626852,16.439175 44.377652,16.2153 45.603377,16.92225 C46.907252,17.675475 51.103202,17.846025 53.444552,17.778525 C53.938352,17.771475 54.343652,18.151575 54.357902,18.638325 C54.372077,19.1286 53.988602,19.5372 53.498327,19.551375 C52.826852,19.572675 46.883177,19.70775 44.719502,18.457125 C44.111927,18.105375 43.056152,18.30435 42.153752,18.93675 C40.796552,19.888875 40.174802,21.498375 40.487477,23.2428 C40.839227,25.214625 41.613677,25.346025 43.155602,25.608975 C44.338652,25.80795 45.809402,26.060175 47.120402,27.371175 C49.095752,29.346525 48.155027,31.4853 47.533277,32.902875 C47.291702,33.446475 46.964102,34.192575 47.120402,34.34895 C48.871952,36.1005 49.671602,37.887525 48.257552,41.387025 C48.111902,41.73165 47.781827,41.941275 47.430077,41.941275 Z M37.779677,12.37095 C37.541702,12.37095 37.300502,12.338925 37.058927,12.260775 C36.280877,12.0156 35.655077,11.37255 35.154152,10.2996 C33.828902,7.460925 38.607827,3.098025 39.581252,2.2524525 C39.950777,1.92915 40.512302,1.96824 40.832027,2.3377275 C41.155352,2.7072225 41.115677,3.26859 40.746152,3.588345 C38.806352,5.27595 36.199127,8.3385 36.764027,9.54645 C36.952277,9.95145 37.250402,10.4595 37.591502,10.566075 C38.046227,10.7118 38.898527,10.217925 39.719177,9.741825 C40.117127,9.514425 40.423427,9.27645 40.721927,9.04905 C41.624327,8.356275 42.554477,7.642125 44.487227,8.757675 C45.851477,9.54285 48.373877,9.4185 49.230077,9.301275 C49.716827,9.237375 50.160977,9.5784 50.228477,10.06155 C50.292452,10.5483 49.951802,10.99245 49.468652,11.05995 C49.319402,11.08125 45.762602,11.539575 43.602527,10.292475 C42.696527,9.77025 42.594077,9.8484 41.801777,10.455975 C41.492702,10.69395 41.104802,10.992375 40.607402,11.28015 C39.641027,11.838 38.721227,12.37095 37.779677,12.37095 Z"/>
</svg>
