<svg xmlns="http://www.w3.org/2000/svg" width="61" height="60" viewBox="0 0 61 60">
  <path d="M27,16 L25,16 C25,18.2 26.8,20 29,20 L29,22 L31,22 L31,20 C33.2,20 35,18.2 35,16 C35,13.8 33.2,12 31,12 L31,8 C32.1,8 33,8.9 33,10 L35,10 C35,7.8 33.2,6 31,6 L31,4 L29,4 L29,6 C26.8,6 25,7.8 25,10 C25,12.2 26.8,14 29,14 L29,18 C27.9,18 27,17.1 27,16 Z M31,14 C32.1,14 33,14.9 33,16 C33,17.1 32.1,18 31,18 L31,14 Z M27,10 C27,8.9 27.9,8 29,8 L29,12 C27.9,12 27,11.1 27,10 Z"/>
  <path d="M23.1,24 L18,24 L18,26 L42,26 L42,24 L36.9,24 C40.6,21.7 43,17.6 43,13 C43,5.8 37.2,0 30,0 C22.8,0 17,5.8 17,13 C17,17.6 19.4,21.7 23.1,24 Z M30,2 C36.1,2 41,6.9 41,13 C41,19.1 36.1,24 30,24 C23.9,24 19,19.1 19,13 C19,6.9 23.9,2 30,2 Z"/>
  <path d="M54.568369,32 L61,32 L56.3772652,17 L44.9209226,17 C44.7199341,17.7 44.5189456,18.4 44.2174629,19 L54.7693575,19 L58.1861614,30 L2.61285008,30 L6.02965404,19 L16.5815486,19 C16.2800659,18.4 16.0790774,17.7 15.878089,17 L4.52224053,17 L0,32 L6.33113674,32 L6.33113674,52 L0.301482702,52 L0.301482702,60 L60.5980231,60 L60.5980231,52 L54.568369,52 L54.568369,32 Z M8,32 L52,32 L52,52 L36,52 L36,36 L24,36 L24,52 L8,52 L8,32 Z M34,52 L26,52 L26,38 L34,38 L34,52 Z M58,58 L2,58 L2,54 L58,54 L58,58 Z"/>
  <path d="M10,36 L10,46 L22,46 L22,36 L10,36 Z M20,44 L12,44 L12,38 L20,38 L20,44 Z M50,36 L38,36 L38,46 L50,46 L50,36 Z M48,44 L40,44 L40,38 L48,38 L48,44 Z"/>
</svg>
