<svg xmlns="http://www.w3.org/2000/svg" width="44" height="62" viewBox="0 0 44 62">
  <path d="M21.9848413,16.4136424 C16.5807144,16.4136424 12.2688771,18.6135074 9.84418511,22.6081667 C7.04563074,27.2193487 7.16027339,33.645069 10.1428929,39.3784751 C11.688021,42.3477197 12.8389058,43.9692762 13.7636898,45.271744 C15.1330325,47.2002881 15.8278943,48.1849411 16.4055659,51.6758096 C16.4055659,51.6840894 16.4011076,51.6904584 16.4011076,51.6987382 L16.4011076,58.0053575 C16.4011076,58.8008501 17.0482016,59.4479441 17.8430573,59.4479441 L18.8627399,59.4479441 C19.1589001,60.9000843 20.4460823,61.9968323 21.9848413,61.9968323 C23.5236004,61.9968323 24.8114195,60.9000843 25.1069427,59.4479441 L26.1272623,59.4479441 C26.9227549,59.4479441 27.5698489,58.8008501 27.5698489,58.0053575 L27.5698489,51.6987382 C27.5698489,51.6910953 27.5653906,51.6847263 27.5653906,51.6770834 C28.1417883,48.185578 28.8372871,47.2002881 30.2059929,45.271744 C31.1307769,43.9686393 32.2822986,42.3477197 33.8267898,39.3784751 C36.8100462,33.645069 36.9240519,27.2193487 34.1261345,22.6081667 C31.7014425,18.6135074 27.3889683,16.4136424 21.9848413,16.4136424 Z M26.2960417,54.7081076 L17.6742778,56.0538849 L17.6742778,54.9240179 L26.2954048,53.5209193 L26.2954048,54.7081076 L26.2960417,54.7081076 Z M21.9848413,60.7223882 C21.1543191,60.7223882 20.4530882,60.1873892 20.1894101,59.4473072 L23.7809095,59.4473072 C23.5165945,60.1873892 22.8153636,60.7223882 21.9848413,60.7223882 Z M26.1272623,58.1735 L17.8430573,58.1735 C17.7500694,58.1735 17.6749147,58.0977085 17.6749147,58.0047206 L17.6749147,57.3429778 L26.2960417,55.9978374 L26.2960417,58.0047206 C26.2960417,58.0977085 26.2196133,58.1735 26.1272623,58.1735 Z M32.6969228,38.7893393 C31.1925565,41.6808816 30.0696955,43.2623132 29.16784,44.5335728 C27.7628307,46.5124322 26.9144751,47.7072634 26.2864882,51.5968336 C26.2731132,51.6783572 26.2788453,51.7586071 26.2960417,51.8343986 L26.2960417,52.2299157 L17.6749147,53.6330144 L17.6749147,51.8503212 C17.6946588,51.7700714 17.6991171,51.6847263 17.6851052,51.5981074 C17.0558445,47.7085372 16.2081258,46.513706 14.8031165,44.5342097 C13.9006241,43.263587 12.777763,41.6815185 11.2733968,38.7893393 C8.49458641,33.4489027 8.36465808,27.501497 10.9339272,23.2679988 C13.1185065,19.6688566 17.0431064,17.6868127 21.9854782,17.6868127 C26.9278501,17.6868127 30.8530869,19.6688566 33.0376662,23.2686357 C35.6062984,27.5021339 35.4757332,33.4495396 32.6969228,38.7893393 Z M21.9848413,13.8545638 C22.3364121,13.8545638 22.6217449,13.569231 22.6217449,13.2176602 L22.6217449,0.636903589 C22.6217449,0.285332808 22.3364121,1.0960128e-15 21.9848413,1.0960128e-15 C21.6332706,1.0960128e-15 21.3479377,0.285332808 21.3479377,0.636903589 L21.3479377,13.2176602 C21.3479377,13.5698679 21.6332706,13.8545638 21.9848413,13.8545638 Z M12.2198355,13.5138204 C12.3338412,13.7310045 12.5548468,13.8545638 12.7841321,13.8545638 C12.8841259,13.8545638 12.9847567,13.8309983 13.0796553,13.7813199 C13.3911012,13.6182725 13.5108391,13.2329459 13.3471549,12.9215 L9.12002573,4.87040175 C8.95634151,4.55895589 8.57165174,4.43921802 8.26020589,4.60290224 C7.94876003,4.76594956 7.82902216,5.15127623 7.99270638,5.46272209 L12.2198355,13.5138204 Z M1.03198706,13.5233739 C0.755570906,13.3055529 0.354958546,13.3520468 0.137137519,13.628463 C-0.0806835089,13.9042423 -0.0341895467,14.3048546 0.242226611,14.5233125 L6.48260797,19.4554939 C6.59979823,19.547845 6.73864321,19.5924282 6.87748819,19.5924282 C7.06537475,19.5924282 7.2519875,19.5096307 7.37745751,19.3504049 C7.59527854,19.0746256 7.54878458,18.6740132 7.27236842,18.4555553 L1.03198706,13.5233739 Z M30.8893904,13.7819568 C30.9836521,13.8316353 31.0855567,13.8552007 31.1849137,13.8552007 C31.414199,13.8552007 31.6352045,13.7316414 31.7498472,13.5144573 L35.9776132,5.46208518 C36.1412974,5.15063933 36.0209226,4.76594956 35.7094768,4.60226534 C35.397394,4.43794421 35.0133412,4.55831899 34.84902,4.86976484 L30.621254,12.9215 C30.4582067,13.2329459 30.5779446,13.6182725 30.8893904,13.7819568 Z M43.8325452,13.628463 C43.6147241,13.3533207 43.2147487,13.3055529 42.9383325,13.5233739 L36.6985881,18.4555553 C36.4221719,18.6740132 36.3756779,19.0746256 36.5941359,19.3504049 C36.7196059,19.5096307 36.9055817,19.5924282 37.0941052,19.5924282 C37.2323133,19.5924282 37.3717951,19.547845 37.4883485,19.4554939 L43.728093,14.5233125 C44.0038722,14.3048546 44.0510031,13.9042423 43.8325452,13.628463 Z"/>
</svg>
